<svg xmlns="http://www.w3.org/2000/svg" viewBox="0 0 102.13 92.15"><defs><style>.cls-1,.cls-2{fill:#fff;}.cls-1{opacity:0.4;}.cls-3{fill:#1d1d1b;}.cls-4{fill:#f07e2d;}.cls-5{fill:#2b251c;}.cls-6{fill:#85c5ca;}</style></defs><title>Asset 3_coding</title><g id="Layer_2" data-name="Layer 2"><g id="Livello_2" data-name="Livello 2"><circle class="cls-1" cx="56.13" cy="46" r="46"/><path class="cls-2" d="M74.7,72a5.82,5.82,0,0,0-5.81,5.8v8a5.81,5.81,0,0,0,11.61,0v-8A5.82,5.82,0,0,0,74.7,72Z"/><path class="cls-3" d="M74.7,71.54a6.31,6.31,0,0,0-6.31,6.3v8a6.31,6.31,0,0,0,12.61,0v-8A6.31,6.31,0,0,0,74.7,71.54ZM80,85.85a5.31,5.31,0,0,1-10.61,0v-8a5.31,5.31,0,0,1,10.61,0Z"/><path class="cls-3" d="M92.22,42.81a.5.5,0,0,0-.5.5v7.44c0,3.5-3.47,3.6-3.61,3.6H79.76A5.39,5.39,0,0,0,75.47,56a6.5,6.5,0,0,0-1.23,4.73v17.1a.5.5,0,0,0,.5.5.5.5,0,0,0,.5-.5V60.7a5.64,5.64,0,0,1,1-4,4.42,4.42,0,0,1,3.52-1.33h8.36a4.48,4.48,0,0,0,4.6-4.6V43.31A.5.5,0,0,0,92.22,42.81Z"/><path class="cls-3" d="M74.7,85.91a1.73,1.73,0,1,0,1.72,1.73A1.74,1.74,0,0,0,74.7,85.91Zm0,2.45a.73.73,0,0,1-.73-.72.73.73,0,0,1,.73-.73.73.73,0,0,1,.72.73A.72.72,0,0,1,74.7,88.36Z"/><rect class="cls-2" x="26.86" y="8.82" width="51.52" height="37.67" rx="2.42" ry="2.42"/><path class="cls-3" d="M76,8.32H29.28a2.92,2.92,0,0,0-2.92,2.92V44.07A2.93,2.93,0,0,0,29.28,47H76a2.93,2.93,0,0,0,2.92-2.93V11.24A2.92,2.92,0,0,0,76,8.32Zm1.92,35.75A1.93,1.93,0,0,1,76,46H29.28a1.93,1.93,0,0,1-1.92-1.93V11.24a1.92,1.92,0,0,1,1.92-1.92H76a1.92,1.92,0,0,1,1.92,1.92Z"/><path class="cls-2" d="M18.06,46.53a2.68,2.68,0,0,0,2.67,2.68H84.5a2.68,2.68,0,0,0,2.68-2.68v-2.2H18.06Z"/><path class="cls-3" d="M17.56,46.53a3.18,3.18,0,0,0,3.17,3.18H84.5a3.19,3.19,0,0,0,3.18-3.18v-2.7H17.56Zm1-1.7H86.68v1.7a2.19,2.19,0,0,1-2.18,2.18H20.73a2.18,2.18,0,0,1-2.17-2.18Z"/><rect class="cls-4" x="29.81" y="12.45" width="45.62" height="31.87"/><path class="cls-5" d="M75.41,11.94h0L29.79,12a.47.47,0,0,0-.35.15.51.51,0,0,0-.15.35l0,31.87a.5.5,0,0,0,.5.5h0l45.62,0a.51.51,0,0,0,.5-.5l0-31.87A.5.5,0,0,0,75.41,11.94ZM30.32,43.84l0-30.87,44.62,0,0,30.87Z"/><polygon class="cls-6" points="38.11 29.69 47.46 34.26 47.46 30.96 41.25 28.37 41.25 28.29 47.46 25.63 47.46 22.35 38.11 26.92 38.11 29.69"/><path class="cls-3" d="M37.61,30,48,35.06V30.63l-5.51-2.31L48,26V21.55L37.61,26.61Zm1-2.77L47,23.15V25.3l-5.9,2.53-.31.21v.66L47,31.3v2.16l-8.35-4.08Z"/><polygon class="cls-6" points="48.54 36.92 51.54 36.92 56.38 19.69 53.36 19.69 48.54 36.92"/><path class="cls-3" d="M47.88,37.42h4L57,19.19H53Zm7.84-17.23L51.16,36.42h-2l4.54-16.23Z"/><polygon class="cls-6" points="57.7 25.62 63.95 28.23 63.95 28.3 57.7 30.99 57.7 34.26 67.12 29.69 67.12 26.91 57.7 22.35 57.7 25.62"/><path class="cls-3" d="M57.2,26l5.56,2.32L57.2,30.66v4.4L67.62,30V26.59l-10.42-5Zm1-2.8,8.42,4.07v2.16L58.2,33.46V31.32l6-2.56.3-.2V27.9L58.2,25.29Z"/><path class="cls-2" d="M64.21,53.44H2.11A1.69,1.69,0,0,0,.5,55.2V81.27A1.69,1.69,0,0,0,2.11,83h62.1a1.69,1.69,0,0,0,1.61-1.76V55.2A1.69,1.69,0,0,0,64.21,53.44Z"/><path class="cls-3" d="M64.21,52.94H2.11A2.18,2.18,0,0,0,0,55.2V81.27a2.18,2.18,0,0,0,2.11,2.26h62.1a2.18,2.18,0,0,0,2.11-2.26V55.2A2.18,2.18,0,0,0,64.21,52.94Zm1.11,28.33a1.19,1.19,0,0,1-1.11,1.26H2.11A1.19,1.19,0,0,1,1,81.27V55.2a1.2,1.2,0,0,1,1.11-1.26h62.1a1.2,1.2,0,0,1,1.11,1.26Z"/><rect class="cls-6" x="51.43" y="65.6" width="2.76" height="2.45"/><path class="cls-3" d="M54.19,65.25H51.43a.35.35,0,0,0-.35.35v2.45a.35.35,0,0,0,.35.35h2.76a.35.35,0,0,0,.35-.35V65.6A.35.35,0,0,0,54.19,65.25Zm-.35,2.45H51.78V66h2.06Z"/><rect class="cls-6" x="47.23" y="65.6" width="2.76" height="2.45"/><path class="cls-3" d="M50,65.25H47.23a.35.35,0,0,0-.35.35v2.45a.35.35,0,0,0,.35.35H50a.35.35,0,0,0,.35-.35V65.6A.35.35,0,0,0,50,65.25Zm-.36,2.45H47.58V66h2.06Z"/><rect class="cls-6" x="43.04" y="65.6" width="2.76" height="2.45"/><path class="cls-3" d="M45.8,65.25H43a.35.35,0,0,0-.35.35v2.45a.35.35,0,0,0,.35.35H45.8a.35.35,0,0,0,.35-.35V65.6A.35.35,0,0,0,45.8,65.25Zm-.35,2.45H43.39V66h2.06Z"/><rect class="cls-6" x="38.85" y="65.61" width="2.75" height="2.43"/><path class="cls-3" d="M41.6,65.26H38.85a.35.35,0,0,0-.35.35V68a.35.35,0,0,0,.35.35H41.6A.35.35,0,0,0,42,68V65.61A.35.35,0,0,0,41.6,65.26Zm-.35,2.43h-2V66h2Z"/><rect class="cls-6" x="34.63" y="65.59" width="2.79" height="2.47"/><path class="cls-3" d="M37.42,65.24H34.63a.35.35,0,0,0-.35.35v2.47a.35.35,0,0,0,.35.35h2.79a.35.35,0,0,0,.35-.35V65.59A.35.35,0,0,0,37.42,65.24Zm-.35,2.47H35V65.94h2.09Z"/><rect class="cls-6" x="30.44" y="65.61" width="2.75" height="2.44"/><path class="cls-3" d="M33.19,65.26H30.44a.35.35,0,0,0-.35.35V68a.35.35,0,0,0,.35.35h2.75a.34.34,0,0,0,.35-.35V65.61A.34.34,0,0,0,33.19,65.26Zm-.35,2.43H30.79V66h2.05Z"/><rect class="cls-6" x="26.26" y="65.61" width="2.75" height="2.43"/><path class="cls-3" d="M29,65.26H26.26a.35.35,0,0,0-.35.35V68a.35.35,0,0,0,.35.35H29a.35.35,0,0,0,.35-.35V65.61A.35.35,0,0,0,29,65.26Zm-.35,2.43H26.61V66h2.05Z"/><rect class="cls-6" x="22.08" y="65.61" width="2.75" height="2.43"/><path class="cls-3" d="M24.83,65.26H22.08a.35.35,0,0,0-.35.35V68a.35.35,0,0,0,.35.35h2.75a.35.35,0,0,0,.35-.35V65.61A.35.35,0,0,0,24.83,65.26Zm-.35,2.43H22.43V66h2.05Z"/><rect class="cls-6" x="17.9" y="65.61" width="2.75" height="2.43"/><path class="cls-3" d="M20.64,65.26H17.9a.35.35,0,0,0-.35.35V68a.35.35,0,0,0,.35.35h2.74A.35.35,0,0,0,21,68V65.61A.35.35,0,0,0,20.64,65.26Zm-.35,2.43h-2V66h2Z"/><rect class="cls-6" x="13.72" y="65.61" width="2.75" height="2.43"/><path class="cls-3" d="M16.46,65.26H13.72a.35.35,0,0,0-.35.35V68a.35.35,0,0,0,.35.35h2.74a.35.35,0,0,0,.35-.35V65.61A.35.35,0,0,0,16.46,65.26Zm-.35,2.43h-2V66h2Z"/><rect class="cls-6" x="9.49" y="65.59" width="2.79" height="2.47"/><path class="cls-3" d="M12.28,65.24H9.49a.35.35,0,0,0-.35.35v2.47a.35.35,0,0,0,.35.35h2.79a.35.35,0,0,0,.35-.35V65.59A.35.35,0,0,0,12.28,65.24Zm-.35,2.47H9.84V65.94h2.09Z"/><rect class="cls-6" x="55.63" y="65.54" width="2.89" height="2.56"/><path class="cls-3" d="M58.52,65.19H55.63a.35.35,0,0,0-.35.35v2.57a.35.35,0,0,0,.35.35h2.89a.35.35,0,0,0,.35-.35V65.54A.35.35,0,0,0,58.52,65.19Zm-.35,2.57H56V65.89h2.19Z"/><rect class="cls-6" x="3.41" y="65.59" width="4.65" height="2.47"/><path class="cls-3" d="M8.06,65.24H3.41a.35.35,0,0,0-.35.35v2.47a.35.35,0,0,0,.35.35H8.06a.35.35,0,0,0,.35-.35V65.59A.35.35,0,0,0,8.06,65.24Zm-.35,2.47H3.76V65.94h4Z"/><rect class="cls-6" x="10.61" y="69.71" width="2.94" height="2.6"/><path class="cls-3" d="M13.54,69.36H10.61a.35.35,0,0,0-.35.35v2.61a.35.35,0,0,0,.35.35h2.93a.35.35,0,0,0,.35-.35V69.71A.35.35,0,0,0,13.54,69.36ZM13.19,72H11V70.06h2.23Z"/><rect class="cls-6" x="51.7" y="69.78" width="2.79" height="2.47"/><path class="cls-3" d="M54.49,69.43H51.7a.35.35,0,0,0-.35.35v2.47a.35.35,0,0,0,.35.35h2.79a.35.35,0,0,0,.35-.35V69.78A.35.35,0,0,0,54.49,69.43Zm-.35,2.47H52.05V70.13h2.09Z"/><rect class="cls-6" x="47.62" y="69.79" width="2.75" height="2.44"/><path class="cls-3" d="M50.37,69.44H47.62a.35.35,0,0,0-.35.35v2.44a.35.35,0,0,0,.35.35h2.75a.35.35,0,0,0,.35-.35V69.79A.35.35,0,0,0,50.37,69.44ZM50,71.88H48V70.14H50Z"/><rect class="cls-6" x="43.49" y="69.78" width="2.79" height="2.47"/><path class="cls-3" d="M46.28,69.43H43.49a.35.35,0,0,0-.35.35v2.47a.35.35,0,0,0,.35.35h2.79a.35.35,0,0,0,.35-.35V69.78A.35.35,0,0,0,46.28,69.43Zm-.35,2.47H43.84V70.13h2.09Z"/><rect class="cls-6" x="39.41" y="69.8" width="2.75" height="2.43"/><path class="cls-3" d="M42.15,69.45H39.41a.34.34,0,0,0-.35.35v2.43a.35.35,0,0,0,.35.35h2.74a.35.35,0,0,0,.35-.35V69.8A.34.34,0,0,0,42.15,69.45Zm-.35,2.43h-2V70.15h2Z"/><rect class="cls-6" x="35.32" y="69.8" width="2.75" height="2.43"/><path class="cls-3" d="M38.07,69.45H35.32a.35.35,0,0,0-.35.35v2.43a.35.35,0,0,0,.35.35h2.75a.35.35,0,0,0,.35-.35V69.8A.35.35,0,0,0,38.07,69.45Zm-.35,2.43h-2V70.15h2Z"/><rect class="cls-6" x="31.24" y="69.8" width="2.75" height="2.43"/><path class="cls-3" d="M34,69.45H31.24a.35.35,0,0,0-.35.35v2.43a.35.35,0,0,0,.35.35H34a.35.35,0,0,0,.35-.35V69.8A.34.34,0,0,0,34,69.45Zm-.35,2.43h-2V70.15h2Z"/><rect class="cls-6" x="27.16" y="69.8" width="2.75" height="2.43"/><path class="cls-3" d="M29.9,69.45H27.16a.34.34,0,0,0-.35.35v2.43a.35.35,0,0,0,.35.35H29.9a.35.35,0,0,0,.35-.35V69.8A.35.35,0,0,0,29.9,69.45Zm-.35,2.43h-2V70.15h2Z"/><rect class="cls-6" x="23.07" y="69.8" width="2.75" height="2.43"/><path class="cls-3" d="M25.82,69.45H23.07a.35.35,0,0,0-.35.35v2.43a.35.35,0,0,0,.35.35h2.75a.35.35,0,0,0,.35-.35V69.8A.35.35,0,0,0,25.82,69.45Zm-.35,2.43h-2V70.15h2Z"/><rect class="cls-6" x="18.99" y="69.8" width="2.75" height="2.43"/><path class="cls-3" d="M21.73,69.45H19a.34.34,0,0,0-.35.35v2.43a.35.35,0,0,0,.35.35h2.74a.35.35,0,0,0,.35-.35V69.8A.34.34,0,0,0,21.73,69.45Zm-.35,2.43h-2V70.15h2Z"/><rect class="cls-6" x="14.88" y="69.79" width="2.77" height="2.45"/><path class="cls-3" d="M17.65,69.44H14.88a.35.35,0,0,0-.35.35v2.45a.35.35,0,0,0,.35.35h2.77a.35.35,0,0,0,.35-.35V69.79A.35.35,0,0,0,17.65,69.44Zm-.35,2.45H15.23V70.14H17.3Z"/><rect class="cls-6" x="55.83" y="69.78" width="2.79" height="2.47"/><path class="cls-3" d="M58.62,69.43H55.83a.35.35,0,0,0-.35.35v2.47a.35.35,0,0,0,.35.35h2.79a.35.35,0,0,0,.35-.35V69.78A.35.35,0,0,0,58.62,69.43Zm-.35,2.47H56.18V70.13h2.09Z"/><rect class="cls-6" x="3.41" y="69.73" width="5.86" height="2.56"/><path class="cls-3" d="M9.27,69.38H3.41a.35.35,0,0,0-.35.35v2.56a.35.35,0,0,0,.35.35H9.27a.35.35,0,0,0,.35-.35V69.73A.35.35,0,0,0,9.27,69.38Zm-.35,2.56H3.76V70.08H8.92Z"/><rect class="cls-6" x="12.32" y="73.97" width="2.79" height="2.47"/><path class="cls-3" d="M15.11,73.62H12.32A.35.35,0,0,0,12,74v2.46a.35.35,0,0,0,.35.35h2.79a.35.35,0,0,0,.35-.35V74A.35.35,0,0,0,15.11,73.62Zm-.35,2.46H12.67V74.31h2.09Z"/><rect class="cls-6" x="51.25" y="73.98" width="2.75" height="2.43"/><path class="cls-3" d="M54,73.63H51.25a.35.35,0,0,0-.35.35v2.44a.35.35,0,0,0,.35.35H54a.35.35,0,0,0,.35-.35V74A.35.35,0,0,0,54,73.63Zm-.35,2.44h-2V74.33h2Z"/><rect class="cls-6" x="46.94" y="73.98" width="2.75" height="2.43"/><path class="cls-3" d="M49.69,73.63H46.94a.35.35,0,0,0-.35.35v2.44a.35.35,0,0,0,.35.35h2.75a.35.35,0,0,0,.35-.35V74A.35.35,0,0,0,49.69,73.63Zm-.35,2.44H47.29V74.33h2.05Z"/><rect class="cls-6" x="42.63" y="73.98" width="2.75" height="2.43"/><path class="cls-3" d="M45.38,73.63H42.63a.35.35,0,0,0-.35.35v2.44a.35.35,0,0,0,.35.35h2.75a.35.35,0,0,0,.35-.35V74A.35.35,0,0,0,45.38,73.63ZM45,76.07H43V74.33H45Z"/><rect class="cls-6" x="38.32" y="73.98" width="2.75" height="2.43"/><path class="cls-3" d="M41.07,73.63H38.32A.35.35,0,0,0,38,74v2.44a.35.35,0,0,0,.35.34h2.75a.35.35,0,0,0,.35-.34V74A.35.35,0,0,0,41.07,73.63Zm-.35,2.44h-2V74.33h2Z"/><rect class="cls-6" x="34.02" y="73.98" width="2.75" height="2.43"/><path class="cls-3" d="M36.76,73.63H34a.35.35,0,0,0-.35.35v2.44a.34.34,0,0,0,.35.34h2.74a.34.34,0,0,0,.35-.34V74A.35.35,0,0,0,36.76,73.63Zm-.35,2.44h-2V74.33h2Z"/><rect class="cls-6" x="29.67" y="73.97" width="2.79" height="2.47"/><path class="cls-3" d="M32.46,73.62H29.67a.35.35,0,0,0-.35.35v2.46a.35.35,0,0,0,.35.35h2.79a.35.35,0,0,0,.35-.35V74A.35.35,0,0,0,32.46,73.62Zm-.35,2.46H30V74.31h2.09Z"/><rect class="cls-6" x="25.32" y="73.97" width="2.79" height="2.47"/><path class="cls-3" d="M28.11,73.62H25.32A.35.35,0,0,0,25,74v2.46a.35.35,0,0,0,.35.35h2.79a.34.34,0,0,0,.35-.35V74A.34.34,0,0,0,28.11,73.62Zm-.35,2.46H25.67V74.31h2.09Z"/><rect class="cls-6" x="20.98" y="73.97" width="2.79" height="2.47"/><path class="cls-3" d="M23.77,73.62H21a.35.35,0,0,0-.35.35v2.46a.35.35,0,0,0,.35.35h2.79a.35.35,0,0,0,.35-.35V74A.35.35,0,0,0,23.77,73.62Zm-.35,2.46H21.33V74.31h2.09Z"/><rect class="cls-6" x="16.67" y="73.98" width="2.75" height="2.43"/><path class="cls-3" d="M19.42,73.63H16.67a.35.35,0,0,0-.35.35v2.44a.35.35,0,0,0,.35.35h2.75a.35.35,0,0,0,.35-.35V74A.35.35,0,0,0,19.42,73.63Zm-.35,2.44H17V74.33h2.05Z"/><rect class="cls-6" x="3.41" y="73.98" width="7.35" height="2.43"/><path class="cls-3" d="M10.76,73.63H3.41a.35.35,0,0,0-.35.35v2.44a.35.35,0,0,0,.35.35h7.35a.35.35,0,0,0,.35-.35V74A.35.35,0,0,0,10.76,73.63Zm-.35,2.44H3.76V74.33h6.65Z"/><rect class="cls-6" x="55.56" y="73.98" width="7.35" height="2.43"/><path class="cls-3" d="M62.91,73.63H55.56a.35.35,0,0,0-.35.35v2.44a.35.35,0,0,0,.35.35h7.35a.35.35,0,0,0,.35-.35V74A.35.35,0,0,0,62.91,73.63Zm-.35,2.44H55.91V74.33h6.65Z"/><rect class="cls-6" x="3.41" y="61.41" width="2.79" height="2.47"/><path class="cls-3" d="M6.2,61.06H3.41a.35.35,0,0,0-.35.35v2.46a.35.35,0,0,0,.35.35H6.2a.35.35,0,0,0,.35-.35V61.41A.35.35,0,0,0,6.2,61.06Zm-.35,2.46H3.76V61.76H5.85Z"/><rect class="cls-6" x="58.23" y="61.42" width="4.68" height="2.43"/><path class="cls-3" d="M62.91,61.07H58.23a.35.35,0,0,0-.35.35v2.43a.35.35,0,0,0,.35.35h4.68a.35.35,0,0,0,.35-.35V61.42A.35.35,0,0,0,62.91,61.07Zm-.35,2.44h-4V61.77h4Z"/><rect class="cls-6" x="49.8" y="61.41" width="2.79" height="2.47"/><path class="cls-3" d="M52.59,61.06H49.8a.35.35,0,0,0-.35.35v2.46a.35.35,0,0,0,.35.35h2.79a.35.35,0,0,0,.35-.35V61.41A.35.35,0,0,0,52.59,61.06Zm-.35,2.46H50.15V61.76h2.09Z"/><rect class="cls-6" x="45.57" y="61.41" width="2.79" height="2.47"/><path class="cls-3" d="M48.35,61.06H45.57a.34.34,0,0,0-.35.35v2.46a.34.34,0,0,0,.35.35h2.78a.34.34,0,0,0,.35-.35V61.41A.34.34,0,0,0,48.35,61.06ZM48,63.52H45.92V61.76H48Z"/><rect class="cls-6" x="41.33" y="61.41" width="2.79" height="2.47"/><path class="cls-3" d="M44.12,61.06H41.33a.35.35,0,0,0-.35.35v2.46a.35.35,0,0,0,.35.35h2.79a.35.35,0,0,0,.35-.35V61.41A.35.35,0,0,0,44.12,61.06Zm-.35,2.46H41.68V61.76h2.09Z"/><rect class="cls-6" x="37.14" y="61.42" width="2.75" height="2.43"/><path class="cls-3" d="M39.88,61.07H37.14a.35.35,0,0,0-.35.35v2.43a.34.34,0,0,0,.35.35h2.74a.34.34,0,0,0,.35-.35V61.42A.35.35,0,0,0,39.88,61.07Zm-.35,2.44h-2V61.77h2Z"/><rect class="cls-6" x="32.94" y="61.42" width="2.75" height="2.43"/><path class="cls-3" d="M35.69,61.07H32.94a.35.35,0,0,0-.35.35v2.44a.35.35,0,0,0,.35.35h2.75a.35.35,0,0,0,.35-.35V61.42A.35.35,0,0,0,35.69,61.07Zm-.35,2.44H33.29V61.77h2.05Z"/><rect class="cls-6" x="28.7" y="61.41" width="2.79" height="2.47"/><path class="cls-3" d="M31.49,61.06H28.7a.35.35,0,0,0-.35.35v2.46a.35.35,0,0,0,.35.35h2.79a.35.35,0,0,0,.35-.35V61.41A.35.35,0,0,0,31.49,61.06Zm-.35,2.46H29.05V61.76h2.09Z"/><rect class="cls-6" x="24.51" y="61.42" width="2.75" height="2.43"/><path class="cls-3" d="M27.25,61.07H24.51a.35.35,0,0,0-.35.35v2.43a.34.34,0,0,0,.35.35h2.74a.34.34,0,0,0,.35-.35V61.42A.35.35,0,0,0,27.25,61.07Zm-.35,2.44h-2V61.77h2Z"/><rect class="cls-6" x="20.31" y="61.42" width="2.75" height="2.43"/><path class="cls-3" d="M23.06,61.07H20.31a.35.35,0,0,0-.35.35v2.43a.35.35,0,0,0,.35.35h2.75a.35.35,0,0,0,.35-.35V61.42A.35.35,0,0,0,23.06,61.07Zm-.35,2.44H20.66V61.77h2.05Z"/><rect class="cls-6" x="16.12" y="61.42" width="2.75" height="2.43"/><path class="cls-3" d="M18.87,61.07H16.12a.35.35,0,0,0-.35.35v2.44a.35.35,0,0,0,.35.35h2.75a.35.35,0,0,0,.35-.35V61.42A.35.35,0,0,0,18.87,61.07Zm-.35,2.44H16.47V61.77h2.05Z"/><rect class="cls-6" x="11.88" y="61.41" width="2.79" height="2.47"/><path class="cls-3" d="M14.67,61.06H11.88a.35.35,0,0,0-.35.35v2.46a.35.35,0,0,0,.35.35h2.79a.35.35,0,0,0,.35-.35V61.41A.35.35,0,0,0,14.67,61.06Zm-.35,2.46H12.23V61.76h2.09Z"/><rect class="cls-6" x="7.64" y="61.41" width="2.79" height="2.47"/><path class="cls-3" d="M10.43,61.06H7.64a.35.35,0,0,0-.35.35v2.46a.35.35,0,0,0,.35.35h2.79a.35.35,0,0,0,.35-.35V61.41A.35.35,0,0,0,10.43,61.06Zm-.35,2.46H8V61.76h2.09Z"/><rect class="cls-6" x="54.04" y="61.42" width="2.75" height="2.43"/><path class="cls-3" d="M56.79,61.07H54a.35.35,0,0,0-.35.35v2.44a.35.35,0,0,0,.35.35h2.75a.35.35,0,0,0,.35-.35V61.42A.35.35,0,0,0,56.79,61.07Zm-.35,2.44h-2V61.77h2Z"/><rect class="cls-6" x="21.16" y="78.23" width="19.7" height="3.08"/><path class="cls-3" d="M40.85,77.88H21.16a.35.35,0,0,0-.35.35v3.09a.35.35,0,0,0,.35.35H40.85a.35.35,0,0,0,.35-.35V78.23A.35.35,0,0,0,40.85,77.88ZM40.5,81h-19V78.58h19Z"/><rect class="cls-6" x="3.31" y="78.23" width="3.05" height="3.09"/><path class="cls-3" d="M6.36,77.88H3.31a.35.35,0,0,0-.35.35v3.09a.35.35,0,0,0,.35.35H6.36a.35.35,0,0,0,.35-.35V78.23A.35.35,0,0,0,6.36,77.88ZM6,81H3.66V78.58H6Z"/><polygon class="cls-6" points="7.66 81.32 10.52 81.32 10.52 78.23 7.64 78.23 7.66 81.32"/><path class="cls-3" d="M10.52,77.88H7.64a.33.33,0,0,0-.25.11.31.31,0,0,0-.1.24l0,3.09a.35.35,0,0,0,.35.35h2.86a.35.35,0,0,0,.35-.35V78.23A.35.35,0,0,0,10.52,77.88ZM10.17,81H8V78.58h2.18Z"/><polygon class="cls-6" points="11.88 78.23 11.88 81.32 14.74 81.32 14.72 78.23 11.88 78.23"/><path class="cls-3" d="M14.72,77.88H11.88a.35.35,0,0,0-.35.35v3.09a.35.35,0,0,0,.35.35h2.86a.34.34,0,0,0,.25-.11.32.32,0,0,0,.1-.25l0-3.08A.35.35,0,0,0,14.72,77.88ZM12.23,81V78.58h2.14l0,2.39Z"/><polygon class="cls-6" points="47.22 78.23 47.22 81.32 50.15 81.32 50.12 78.23 47.22 78.23"/><path class="cls-3" d="M50.12,77.88h-2.9a.35.35,0,0,0-.35.35v3.09a.35.35,0,0,0,.35.35h2.93a.36.36,0,0,0,.35-.36l0-3.08A.35.35,0,0,0,50.12,77.88ZM47.57,81V78.58h2.2l0,2.39Z"/><polygon class="cls-6" points="16.15 81.32 19.73 81.32 19.73 78.23 16.13 78.23 16.15 81.32"/><path class="cls-3" d="M19.73,77.88h-3.6a.38.38,0,0,0-.35.35l0,3.09a.35.35,0,0,0,.35.35h3.58a.35.35,0,0,0,.35-.35V78.23A.35.35,0,0,0,19.73,77.88ZM19.38,81H16.5V78.58h2.89Z"/><rect class="cls-6" x="42.08" y="78.23" width="3.95" height="3.08"/><path class="cls-3" d="M46,77.88h-4a.35.35,0,0,0-.35.35v3.09a.35.35,0,0,0,.35.35h4a.35.35,0,0,0,.35-.35V78.23A.35.35,0,0,0,46,77.88ZM45.68,81H42.43V78.58h3.25Z"/><path class="cls-6" d="M60.06,68.15h.56a.41.41,0,0,1,.41.41v3.58h1.78V65.73H60.06Z"/><path class="cls-3" d="M62.81,65.38H60.06a.35.35,0,0,0-.35.35v2.42a.35.35,0,0,0,.35.35l.62.06v3.58a.35.35,0,0,0,.35.35h1.78a.35.35,0,0,0,.35-.35V65.73A.35.35,0,0,0,62.81,65.38Zm-.35,6.41H61.38V68.56a.76.76,0,0,0-.76-.76h-.21V66.08h2.05Z"/><rect class="cls-6" x="3.35" y="58.45" width="2.98" height="1.29"/><path class="cls-3" d="M6.33,58.1h-3a.35.35,0,0,0-.35.35v1.29a.35.35,0,0,0,.35.35h3a.35.35,0,0,0,.35-.35V58.45A.35.35,0,0,0,6.33,58.1ZM6,59.39H3.7V58.8H6Z"/><rect class="cls-6" x="59.82" y="58.45" width="2.98" height="1.29"/><path class="cls-3" d="M62.81,58.1h-3a.35.35,0,0,0-.35.35v1.29a.35.35,0,0,0,.35.35h3a.35.35,0,0,0,.35-.35V58.45A.35.35,0,0,0,62.81,58.1Zm-.35,1.29H60.17V58.8h2.29Z"/><rect class="cls-6" x="55.48" y="58.45" width="2.98" height="1.29"/><path class="cls-3" d="M58.46,58.1h-3a.35.35,0,0,0-.35.35v1.29a.35.35,0,0,0,.35.35h3a.35.35,0,0,0,.35-.35V58.45A.35.35,0,0,0,58.46,58.1Zm-.35,1.29H55.83V58.8h2.28Z"/><rect class="cls-6" x="51.14" y="58.45" width="2.98" height="1.29"/><path class="cls-3" d="M54.12,58.1h-3a.35.35,0,0,0-.35.35v1.29a.35.35,0,0,0,.35.35h3a.35.35,0,0,0,.35-.35V58.45A.35.35,0,0,0,54.12,58.1Zm-.35,1.29H51.49V58.8h2.28Z"/><rect class="cls-6" x="46.79" y="58.45" width="2.98" height="1.29"/><path class="cls-3" d="M49.77,58.1h-3a.35.35,0,0,0-.35.35v1.29a.35.35,0,0,0,.35.35h3a.35.35,0,0,0,.35-.35V58.45A.35.35,0,0,0,49.77,58.1Zm-.35,1.29H47.14V58.8h2.28Z"/><rect class="cls-6" x="42.45" y="58.45" width="2.98" height="1.29"/><path class="cls-3" d="M45.43,58.1h-3a.35.35,0,0,0-.35.35v1.29a.35.35,0,0,0,.35.35h3a.35.35,0,0,0,.35-.35V58.45A.35.35,0,0,0,45.43,58.1Zm-.35,1.29H42.8V58.8h2.28Z"/><rect class="cls-6" x="38.1" y="58.45" width="2.98" height="1.29"/><path class="cls-3" d="M41.08,58.1h-3a.35.35,0,0,0-.35.35v1.29a.35.35,0,0,0,.35.35h3a.35.35,0,0,0,.35-.35V58.45A.35.35,0,0,0,41.08,58.1Zm-.35,1.29H38.45V58.8h2.28Z"/><rect class="cls-6" x="33.76" y="58.45" width="2.98" height="1.29"/><path class="cls-3" d="M36.74,58.1h-3a.35.35,0,0,0-.35.35v1.29a.35.35,0,0,0,.35.35h3a.35.35,0,0,0,.35-.35V58.45A.35.35,0,0,0,36.74,58.1Zm-.35,1.29H34.11V58.8h2.28Z"/><rect class="cls-6" x="29.41" y="58.45" width="2.98" height="1.29"/><path class="cls-3" d="M32.4,58.1h-3a.35.35,0,0,0-.35.35v1.29a.35.35,0,0,0,.35.35h3a.35.35,0,0,0,.35-.35V58.45A.35.35,0,0,0,32.4,58.1Zm-.35,1.29H29.76V58.8h2.29Z"/><rect class="cls-6" x="25.07" y="58.45" width="2.98" height="1.29"/><path class="cls-3" d="M28.05,58.1h-3a.35.35,0,0,0-.35.35v1.29a.35.35,0,0,0,.35.35h3a.35.35,0,0,0,.35-.35V58.45A.35.35,0,0,0,28.05,58.1Zm-.35,1.29H25.42V58.8H27.7Z"/><rect class="cls-6" x="20.73" y="58.45" width="2.98" height="1.29"/><path class="cls-3" d="M23.71,58.1h-3a.35.35,0,0,0-.35.35v1.29a.35.35,0,0,0,.35.35h3a.35.35,0,0,0,.35-.35V58.45A.35.35,0,0,0,23.71,58.1Zm-.35,1.29H21.08V58.8h2.28Z"/><rect class="cls-6" x="16.38" y="58.45" width="2.98" height="1.29"/><path class="cls-3" d="M19.36,58.1h-3a.35.35,0,0,0-.35.35v1.29a.35.35,0,0,0,.35.35h3a.35.35,0,0,0,.35-.35V58.45A.35.35,0,0,0,19.36,58.1ZM19,59.39H16.73V58.8H19Z"/><rect class="cls-6" x="12.04" y="58.45" width="2.98" height="1.29"/><path class="cls-3" d="M15,58.1H12a.35.35,0,0,0-.35.35v1.29a.35.35,0,0,0,.35.35h3a.35.35,0,0,0,.35-.35V58.45A.35.35,0,0,0,15,58.1Zm-.35,1.29H12.39V58.8h2.28Z"/><rect class="cls-6" x="7.69" y="58.45" width="2.98" height="1.29"/><path class="cls-3" d="M10.67,58.1h-3a.35.35,0,0,0-.35.35v1.29a.35.35,0,0,0,.35.35h3a.35.35,0,0,0,.35-.35V58.45A.35.35,0,0,0,10.67,58.1Zm-.35,1.29H8V58.8h2.28Z"/><rect class="cls-6" x="51.32" y="80.03" width="2.98" height="1.29"/><path class="cls-3" d="M54.3,79.68h-3A.35.35,0,0,0,51,80v1.29a.35.35,0,0,0,.35.35h3a.35.35,0,0,0,.35-.35V80A.35.35,0,0,0,54.3,79.68ZM54,81H51.67v-.59H54Z"/><rect class="cls-6" x="55.63" y="80.03" width="2.98" height="1.29"/><path class="cls-3" d="M58.61,79.68h-3a.35.35,0,0,0-.35.35v1.29a.35.35,0,0,0,.35.35h3a.35.35,0,0,0,.35-.35V80A.35.35,0,0,0,58.61,79.68ZM58.26,81H56v-.59h2.28Z"/><rect class="cls-6" x="55.63" y="77.84" width="2.98" height="1.29"/><path class="cls-3" d="M58.61,77.49h-3a.35.35,0,0,0-.35.35v1.29a.35.35,0,0,0,.35.35h3a.35.35,0,0,0,.35-.35V77.84A.35.35,0,0,0,58.61,77.49Zm-.35,1.29H56v-.59h2.28Z"/><rect class="cls-6" x="59.93" y="80.03" width="2.98" height="1.29"/><path class="cls-3" d="M62.91,79.68h-3a.35.35,0,0,0-.35.35v1.29a.35.35,0,0,0,.35.35h3a.35.35,0,0,0,.35-.35V80A.35.35,0,0,0,62.91,79.68ZM62.56,81H60.28v-.59h2.28Z"/></g></g></svg>