<svg height="776" viewBox="0 0 1106 776" width="100%" xmlns="http://www.w3.org/2000/svg"><ellipse cx="416" cy="743.5" fill="#3f3d56" rx="416" ry="32.5"/><path d="m403.14648 882.52148c-.22949-.375-5.64062-9.41015-7.5166-28.17187-1.7207-17.21289-.61425-46.22656 14.43262-86.69824 28.50586-76.6709-6.56934-138.53321-6.92773-139.14942l1.73046-1.0039c.09082.15625 9.14161 15.92871 14.48829 41.04394a179.06122 179.06122 0 0 1 -7.416 99.80664c-28.457 76.54-7.30078 112.77344-7.084 113.13086z" fill="#3f3d56" transform="translate(-247 -162)"/><circle cx="145" cy="449" fill="#ffc107" r="13"/><circle cx="186" cy="497" fill="#3f3d56" r="13"/><circle cx="158" cy="529" fill="#ffc107" r="13"/><circle cx="192" cy="556" fill="#ffc107" r="13"/><circle cx="148" cy="598" fill="#3f3d56" r="13"/><path d="m411 883s-13-32 26-56z" fill="#3f3d56" transform="translate(-247 -162)"/><path d="m395.012 882.41953s-5.91642-34.02934-51.7085-33.73768z" fill="#3f3d56" transform="translate(-247 -162)"/><path d="m617 317s1 26-5 32 30 27 30 27l21-33s-8-14-6-26z" fill="#a0616a" transform="translate(-247 -162)"/><path d="m305.5 683.5v25l31 2-2-27z" fill="#a0616a"/><path d="m475.5 683.5v25l-31 2 2-27z" fill="#a0616a"/><path d="m568.5 568.5s-16 58-6 104c0 0 0 20 4 24s5 4 2 6-9 7-6 10 4 7 2 8-4 3-2 7-10 111-10 111-12 13 0 14 32 6 34-2 18-121 18-121 2-3 6-8 2-7 2-8 21-96 21-96 31 108 34 110 4 2 4 5-2 5 0 8a51.953 51.953 0 0 1 3 5s5 112 15 112 40-2 37-11-7-7-7-7 7-92-10-119v-22c0-2 1-3 0-5s3-121-16-128-125 3-125 3z" fill="#d0cde1" transform="translate(-247 -162)"/><path d="m571.5 863.5s-5-8-12-8-12 8-12 8l-18 25s-26 16-16 25 37 4 37 4 22-16 25-17 11-6 12-7-2-37-5-34.5-5 10.5-11 4.5z" fill="#2f2e41" transform="translate(-247 -162)"/><path d="m703.5 863.5s5-8 12-8 12 8 12 8l18 25s26 16 16 25-37 4-37 4-22-16-25-17-11-6-12-7 2-37 5-34.5 5 10.5 11 4.5z" fill="#2f2e41" transform="translate(-247 -162)"/><circle cx="387.5" cy="133.5" fill="#a0616a" r="36"/><path d="m625 352s-6.72751.37087-9.86376-9.81457l-53.13624 38.81457 22 59s3 32 0 41-5 16-5 20-21 71-13 74 130 15 133-5-10-152-10-152l21-51-51.05491-33.39657s-4.94509 20.39657-33.94509 18.39657z" fill="#3f3d56" transform="translate(-247 -162)"/><path d="m558.5 444.5-4 31s-16 33-12 77l-1 29s-10 50 10 52 7-55 7-55l11-27 11.26029-60.06194 5.73971-41.93806z" fill="#a0616a" transform="translate(-247 -162)"/><path d="m576.5 379.5-14.5 1.5s-9.5 70.5-6.5 70.5 37 8 38 6-17-78-17-78z" fill="#3f3d56" transform="translate(-247 -162)"/><path d="m606.7236 258.59754-6.48961-2.35987s13.56911-13.5691 32.448-12.38912l-5.3098-5.30972s12.9792-4.71963 24.77842 7.66949c6.20262 6.51271 13.37914 14.168 17.853 22.79168h6.9499l-2.90063 5.80127 10.15222 5.80126-10.42026-1.04206a29.27363 29.27363 0 0 1 -.98558 15.02464l-2.35978 6.48952s-9.43948-18.87873-9.43948-21.23863v5.89961s-6.4896-5.30963-6.4896-8.84938l-3.53975 4.12974-1.76988-6.4896-21.82857 6.48963 3.53975-5.30962-13.5691 1.76987 5.3098-6.4896s-15.339 7.66949-15.929 14.15909c-.5899 6.48951-8.2593 14.749-8.2593 14.749l-3.53975-5.89961s-5.30986-26.54822 11.799-35.39759z" fill="#2f2e41" transform="translate(-247 -162)"/><ellipse cx="454.25" cy="514.5" fill="#3f3d56" rx="66.75" ry="95"/><ellipse cx="454.25" cy="514.5" opacity=".1" rx="66.75" ry="95"/><ellipse cx="463.25" cy="514.5" fill="#3f3d56" rx="66.75" ry="95"/><ellipse cx="463.25" cy="514.5" opacity=".1" rx="57.25" ry="81.4794"/><path d="m709.754 715.74791v-9.56458c-4.83486-.09432-9.8366-1.79954-12.754-4.16687l2.00045-6.34464a20.38775 20.38775 0 0 0 12.00393 4.07163c5.91873 0 9.92-3.88252 9.92-9.28022 0-5.2086-3.25119-8.42808-9.41983-11.26934-8.50283-3.78773-13.75447-8.14417-13.75447-16.38268 0-7.86028 4.9183-13.82623 12.58758-15.24663v-9.56458h5.1682v9.1859a20.28186 20.28186 0 0 1 10.837 3.31426l-2.08429 6.25031a18.42058 18.42058 0 0 0 -10.50329-3.21994c-6.41853 0-8.83617 4.356-8.83617 8.14418 0 4.92424 3.08432 7.38635 10.33682 10.79587 8.58586 3.9773 12.92091 8.90154 12.92091 17.32961 0 7.48114-4.585 14.48928-13.17122 16.09832v9.8494z" fill="#ffc107" transform="translate(-247 -162)"/><path d="m724.5 433.5v41s1 50-16 81l-9 20s-18 58-29 40 12-48 12-48l13.01614-76.11956-8.01614-50.88044z" fill="#a0616a" transform="translate(-247 -162)"/><path d="m690.5 364.5 19.5 2.5s23.5 71.5 17.5 74.5-45 5-45 5z" fill="#3f3d56" transform="translate(-247 -162)"/><path d="m591 50.25896h458v512.74104h-458z" fill="#f2f2f2"/><g fill="#e6e6e6"><path d="m922 598.81445h-12v-2h12zm-24 0h-12v-2h12zm-24 0h-12v-2h12zm-24 0h-12v-2h12z" transform="translate(-247 -162)"/><path d="m1090 504h-12v-2h12zm-24 0h-12v-2h12zm-24 0h-12v-2h12zm-24 0h-12v-2h12zm-24 0h-12v-2h12zm-24 0h-12v-2h12zm-24 0h-12v-2h12zm-24 0h-12v-2h12zm-24 0h-12v-2h12zm-24 0h-12v-2h12zm-24 0h-12v-2h12z" transform="translate(-247 -162)"/><path d="m1330 445h-12v-2h12zm-24 0h-12v-2h12zm-24 0h-12v-2h12zm-24 0h-12v-2h12zm-24 0h-12v-2h12zm-24 0h-12v-2h12zm-24 0h-12v-2h12zm-24 0h-12v-2h12zm-24 0h-12v-2h12zm-24 0h-12v-2h12zm-24 0h-12v-2h12zm-24 0h-12v-2h12zm-24 0h-12v-2h12zm-24 0h-12v-2h12zm-24 0h-12v-2h12zm-24 0h-12v-2h12zm-24 0h-12v-2h12zm-24 0h-12v-2h12zm-24 0h-12v-2h12zm-24 0h-12v-2h12zm-24 0h-12v-2h12z" transform="translate(-247 -162)"/><path d="m680 .77588h2v6h-2z"/><path d="m929 617.19922h-2v-11.80078h2zm0-23.60156h-2v-11.80078h2zm0-23.60157h-2v-11.7998h2zm0-23.60058h-2v-11.80078h2zm0-23.60156h-2v-11.80079h2zm0-23.60157h-2v-11.7998h2zm0-23.60058h-2v-11.8008h2zm0-23.60157h-2v-11.80078h2zm0-23.60156h-2v-11.7998h2zm0-23.60058h-2v-11.80079h2zm0-23.60157h-2v-11.80029h2zm0-23.60107h-2v-11.80078h2zm0-23.60107h-2v-11.80079h2zm0-23.60157h-2v-11.80029h2zm0-23.60107h-2v-11.80074h2zm0-23.60108h-2v-11.80078h2zm0-23.60156h-2v-11.80029h2zm0-23.60107h-2v-11.80078h2zm0-23.60108h-2v-11.80078h2z" transform="translate(-247 -162)"/><path d="m680 467h2v6h-2z"/><path d="m854 .77588h2v6h-2z"/><path d="m1103 526.08984h-2v-11.91113h2zm0-23.82129h-2v-11.91015h2zm0-23.82128h-2v-11.91016h2zm0-23.82032h-2v-11.91113h2zm0-23.82129h-2v-11.91015h2zm0-23.8208h-2v-11.91064h2zm0-23.8208h-2v-11.91064h2zm0-23.82129h-2v-11.91015h2zm0-23.8208h-2v-11.91064h2zm0-23.8208h-2v-11.91064h2zm0-23.8208h-2v-11.91064h2zm0-23.82129h-2v-11.91015h2zm0-23.8208h-2v-11.91064h2zm0-23.8208h-2v-11.91064h2zm0-23.8208h-2v-11.91068h2z" transform="translate(-247 -162)"/><path d="m854 376h2v6h-2z"/></g><path d="m591 563 91-91 41.5 41.5 131.5-131.5 85 85 153-153v249z" fill="#ffc107"/><path d="m1341 726h-504v-564h504zm-502-2h500v-560h-500z" fill="#3f3d56" transform="translate(-247 -162)"/><circle cx="681" cy="434" fill="#3f3d56" r="13"/><circle cx="855" cy="341" fill="#3f3d56" r="13"/><circle cx="1093" cy="282" fill="#3f3d56" r="13"/><path d="m1249 242c-5.81738 1.68762-13.62061 2.99127-19.39758 2.52979l7.53845 5.00732-354.7356 262.65918 1.18946 1.60742 354.73608-262.65948 2.5907 8.6726c1.24426-5.66021 4.76807-12.7434 8.07849-17.81683z" fill="#3f3d56" transform="translate(-247 -162)"/></svg>