<?xml version="1.0" standalone="no"?><svg xmlns="http://www.w3.org/2000/svg" viewBox="0 0 1440 320"><path fill="#002e5f" fill-opacity="1" d="M0,96L24,96C48,96,96,96,144,80C192,64,240,32,288,16C336,0,384,0,432,21.3C480,43,528,85,576,112C624,139,672,149,720,138.7C768,128,816,96,864,90.7C912,85,960,107,1008,96C1056,85,1104,43,1152,48C1200,53,1248,107,1296,149.3C1344,192,1392,224,1416,240L1440,256L1440,320L1416,320C1392,320,1344,320,1296,320C1248,320,1200,320,1152,320C1104,320,1056,320,1008,320C960,320,912,320,864,320C816,320,768,320,720,320C672,320,624,320,576,320C528,320,480,320,432,320C384,320,336,320,288,320C240,320,192,320,144,320C96,320,48,320,24,320L0,320Z"></path></svg>