<svg enable-background="new 0 0 382.117 382.117" viewBox="0 0 382.117 382.117" xmlns="http://www.w3.org/2000/svg"><path d="m336.764 45.945h-291.41c-25.008 0-45.354 19.539-45.354 43.555v203.117c0 24.016 20.346 43.555 45.354 43.555h291.41c25.008 0 45.353-19.539 45.353-43.555v-203.117c0-24.016-20.345-43.555-45.353-43.555zm0 251.775h-291.41c-3.676 0-6.9-2.384-6.9-5.103v-176.258l131.797 111.27c2.702 2.282 6.138 3.538 9.676 3.538l22.259.001c3.536 0 6.974-1.257 9.677-3.539l131.803-111.274v176.264c-.002 2.717-3.227 5.101-6.902 5.101zm-145.705-104.733-128.189-108.59h256.378z"/></svg>