<svg viewBox="0 0 54.22 54.22" xmlns="http://www.w3.org/2000/svg">
   <path d="m27.11 0a27.11 27.11 0 0 0 -27.11 27.11 27.11 27.11 0 0 0 27.11 27.11 27.11 27.11 0 0 0 27.11-27.11v-27.11z" fill="#266590"/>
   <g fill="#fff">
      <path d="m34.79 40.9v-3.9a1.5 1.5 0 0 0 -1.5-1.5h-13.07a1.5 1.5 0 0 1 -1.5-1.5v-13.08a1.5 1.5 0 0 0 -1.5-1.5h-3.9a1.5 1.5 0 0 0 -1.5 1.5v20a1.5 1.5 0 0 0 1.5 1.5h20a1.5 1.5 0 0 0 1.47-1.52z"/>
      <path d="m42.55 32.65h-2.91a2 2 0 0 1 -2-2v-12.08a2 2 0 0 0 -2-2h-12.07a2 2 0 0 1 -2-2v-2.9a2 2 0 0 1 2-2h19a2 2 0 0 1 2 2v19a2 2 0 0 1 -2.02 1.98z"/>
   </g>
</svg>