<svg xmlns="http://www.w3.org/2000/svg" x="0px" y="0px"
   viewBox="0 0 48 48"
   style=" fill:#000000;">
   <title>mySQL</title>
   <path fill="#D1C4E9" d="M41 4H7C5.9 4 5 4.9 5 6v8c0 1.1.9 2 2 2h34c1.1 0 2-.9 2-2V6C43 4.9 42.1 4 41 4M41 18H7c-1.1 0-2 .9-2 2v8c0 1.1.9 2 2 2h34c1.1 0 2-.9 2-2v-8C43 18.9 42.1 18 41 18M41 32H7c-1.1 0-2 .9-2 2v8c0 1.1.9 2 2 2h34c1.1 0 2-.9 2-2v-8C43 32.9 42.1 32 41 32"></path>
   <path fill="#D1C4E9" d="M24 8A16 16 0 1 0 24 40A16 16 0 1 0 24 8Z"></path>
   <path fill="#512DA8" d="M25.6,26.5c0-0.4-0.1-0.7-0.3-0.9c-0.2-0.2-0.6-0.4-1.1-0.6c-0.9-0.4-1.6-0.8-2-1.3c-0.4-0.5-0.6-1.1-0.6-1.8c0-0.8,0.3-1.5,0.8-2c0.6-0.5,1.3-0.8,2.1-0.8c0.6,0,1.1,0.1,1.5,0.4c0.5,0.3,0.8,0.6,1,1.1c0.2,0.5,0.4,1,0.4,1.6h-1.9c0-0.5-0.1-0.8-0.3-1.1c-0.2-0.2-0.5-0.4-0.8-0.4c-0.3,0-0.6,0.1-0.8,0.3c-0.2,0.2-0.3,0.5-0.3,0.8c0,0.3,0.1,0.5,0.3,0.7c0.2,0.2,0.6,0.4,1.1,0.7c0.9,0.3,1.6,0.8,2,1.3c0.4,0.5,0.6,1.2,0.6,1.9c0,0.9-0.3,1.5-0.8,2c-0.5,0.5-1.2,0.7-2.1,0.7c-0.6,0-1.2-0.1-1.7-0.4c-0.5-0.3-0.9-0.6-1.2-1.1c-0.3-0.5-0.4-1.1-0.4-1.7h1.9c0,0.6,0.1,1,0.3,1.3c0.2,0.3,0.6,0.4,1,0.4C25.2,27.6,25.6,27.2,25.6,26.5z M35.4,24.9c0,1.6-0.4,2.8-1.3,3.6l1.3,1.2l-1.2,1.2l-1.7-1.7l-0.5,0c-1.1,0-1.9-0.4-2.5-1.1c-0.6-0.8-0.9-1.8-0.9-3.2v-1.6c0-1.4,0.3-2.4,0.9-3.2c0.6-0.8,1.4-1.2,2.5-1.2c1,0,1.9,0.4,2.5,1.1c0.6,0.7,0.9,1.8,0.9,3.1V24.9z M33.5,23.3c0-0.9-0.1-1.6-0.4-2c-0.2-0.4-0.6-0.7-1.1-0.7c-0.5,0-0.9,0.2-1.1,0.6c-0.2,0.4-0.4,1.1-0.4,1.9v1.6c0,0.9,0.1,1.6,0.4,2c0.2,0.4,0.6,0.6,1.1,0.6c0.5,0,0.9-0.2,1.1-0.6c0.2-0.4,0.4-1.1,0.4-2V23.3z M38.7,27.4H42v1.7h-5.2v-10h1.9V27.4z M8.5,19l1.8,7.2L12,19h2.5v10h-1.9v-2.7l0.2-4.2L10.9,29H9.6l-1.9-6.8l0.2,4.2V29H6V19H8.5z M18.3,28l0.9-4h2l-2.3,8.2c-0.3,1.2-1,1.8-1.9,1.8c-0.2,0-0.5,0-0.8-0.1v-1.5l0.2,0c0.3,0,0.5-0.1,0.6-0.2s0.3-0.3,0.3-0.6l0.1-0.5l-2-7.2h2L18.3,28z"></path>
</svg>

