<svg xmlns="http://www.w3.org/2000/svg" viewBox="0 0 54.22 54.22"><defs><style>.cls-1{fill:#3b79bc;}.cls-2{fill:#fff;}</style></defs><title>Asset 12nFront</title><g id="Layer_2" data-name="Layer 2"><g id="nFront"><g id="horizontal"><g id="Icon"><g id="Leaf1"><path class="cls-1" d="M27.11,0A27.11,27.11,0,0,0,0,27.11H0A27.11,27.11,0,0,0,27.11,54.22h0A27.11,27.11,0,0,0,54.22,27.11V0Z"/></g><path class="cls-2" d="M34.79,40.9V37a1.5,1.5,0,0,0-1.5-1.5H20.22a1.5,1.5,0,0,1-1.5-1.5V20.92a1.5,1.5,0,0,0-1.5-1.5h-3.9a1.5,1.5,0,0,0-1.5,1.5v20a1.5,1.5,0,0,0,1.5,1.5h20A1.5,1.5,0,0,0,34.79,40.9Z"/><path class="cls-2" d="M42.55,32.65H39.64a2,2,0,0,1-2-2V18.57a2,2,0,0,0-2-2H23.57a2,2,0,0,1-2-2v-2.9a2,2,0,0,1,2-2h19a2,2,0,0,1,2,2v19A2,2,0,0,1,42.55,32.65Z"/></g></g></g></g></svg>