<?xml version="1.0" encoding="utf-8"?>
<!-- Generator: Adobe Illustrator 16.0.0, SVG Export Plug-In . SVG Version: 6.00 Build 0)  -->
<!DOCTYPE svg PUBLIC "-//W3C//DTD SVG 1.1//EN" "http://www.w3.org/Graphics/SVG/1.1/DTD/svg11.dtd">
<svg version="1.1" id="Capa_1" xmlns="http://www.w3.org/2000/svg" xmlns:xlink="http://www.w3.org/1999/xlink" x="0px" y="0px"
	 width="160px" height="160px" viewBox="1195.59 176 160 160" enable-background="new 1195.59 176 160 160" xml:space="preserve">
<g>
	<g>
		<g>
			<path fill="#4A4A4A" d="M1285.886,316.328c-0.971-0.972-2.54-0.972-3.511,0c-0.973,0.971-0.973,2.54,0,3.511l9.933,9.934
				c0.484,0.484,1.12,0.728,1.755,0.728c0.636,0,1.272-0.243,1.757-0.728c0.971-0.971,0.971-2.54,0-3.511L1285.886,316.328z"/>
			<path fill="#4A4A4A" d="M1276.68,300.7c-1.373,0-2.483,1.112-2.483,2.483v6.421l-16.656,16.656c-0.971,0.972-0.971,2.541,0,3.512
				c0.484,0.484,1.121,0.728,1.756,0.728s1.272-0.243,1.756-0.728l17.383-17.383c0.465-0.468,0.728-1.099,0.728-1.757v-7.449
				C1279.163,301.813,1278.053,300.7,1276.68,300.7z"/>
			<path fill="#4A4A4A" d="M1348.696,186.467h-69.533v-2.484c0-1.371-1.11-2.483-2.483-2.483s-2.483,1.112-2.483,2.483v2.483
				h-69.533c-1.374,0.001-2.483,1.113-2.483,2.483v9.934c0,1.371,1.109,2.483,2.483,2.483h129.134c1.373,0,2.482-1.113,2.482-2.483
				s-1.109-2.484-2.482-2.484h-126.651v-4.966h139.067v4.966h-2.482c-1.375,0-2.484,1.113-2.484,2.484v84.433
				c0,4.107-3.342,7.45-7.449,7.45h-114.234c-4.108,0-7.45-3.343-7.45-7.45v-74.5c0-1.371-1.11-2.483-2.484-2.483
				c-1.373,0-2.482,1.113-2.482,2.483v74.5c0,6.847,5.569,12.417,12.416,12.417h114.234c6.847,0,12.417-5.57,12.417-12.417v-81.95
				h2.482c1.374,0,2.483-1.113,2.483-2.483v-9.934C1351.18,187.579,1350.07,186.467,1348.696,186.467z"/>
		</g>
	</g>
</g>
</svg>
