<svg enable-background="new 0 0 24 24" viewBox="0 0 24 24" xmlns="http://www.w3.org/2000/svg">
    <g fill="none">
        <g stroke="#ff304f" stroke-linecap="round" stroke-linejoin="round" stroke-miterlimit="10">
            <path d="m19.5 20.615v-5.115h-2.25-2.25l-2-3.75 2-3.25h3l1 1h3.538"/>
            <path d="m12 23.5 8.306-3.194 3.194-8.306-3.194-8.306-8.306-3.194-8.306 3.194-3.194 8.306 3.194 8.306z"/>
            <path d="m20.423 4h-2.923v1l-1 1.5h-2v-2.5h1l.903-1.806"/>
            <path d="m7.603 2.191-1.603 4.809 2.5 1v3l-2 1-1-.5v-2l-2 1.5v2.5l1.5 2h4l2.5 3.5-2 3.5"/>
        </g>
        <path d="m0 0h24v24h-24z"/>
    </g>
</svg>
