<svg enable-background="new 0 0 496 496" viewBox="0 0 496 496" xmlns="http://www.w3.org/2000/svg"><path d="m248 0c-136.744 0-248 111.256-248 248s111.256 248 248 248 248-111.256 248-248-111.256-248-248-248zm-232 248c0-109.648 76.488-201.712 178.896-225.792l10.96 10.96c1.384 1.384 2.144 3.224 2.144 5.176v9.16c0 2.536-1.288 4.856-3.448 6.208l-49.592 31c-6.864 4.296-10.96 11.688-10.96 19.96 0 12.864 10.464 23.328 23.328 23.328h9.352c4.032 0 7.32 3.288 7.32 7.328v28.032c0 4.624 1.352 9.104 3.92 12.936l10.856 16.288c.8 1.2 1.224 2.608 1.224 4.056v12.032c0 4.04-3.288 7.328-7.328 7.328h-41.352c-12.856 0-23.32 10.464-23.32 23.328v30.792c0 1.904.232 3.816.696 5.664l7.112 28.448c.128.504.192 1.016.192 1.52 0 3.448-2.8 6.248-6.248 6.248h-1.688c-2.176 0-4.232-1.16-5.352-3.032l-15.384-25.64c-4.192-6.992-11.856-11.328-20-11.328-12.864 0-23.328 10.464-23.328 23.328v10.328c0 1.96-.76 3.8-2.144 5.176l-15.024 15.024c-1.384 1.384-3.224 2.144-5.176 2.144h-11.432c-9.192-24.952-14.224-51.896-14.224-80zm288 225.12c-17.944 4.472-36.696 6.88-56 6.88-47.296 0-91.272-14.296-128-38.696v-13.016c0-11.184 9.104-20.288 20.288-20.288 9.688 0 18.808-3.776 25.656-10.632l7.432-7.432c6.848-6.848 10.624-15.96 10.624-25.648v-16.288c0-6.616 5.384-12 12-12s12 5.384 12 12v27.44c0 7.184 2.112 14.152 6.096 20.128l18.848 28.28c6.744 10.12 18.032 16.16 30.192 16.16h13.152c5.416 0 10.512 2.112 14.344 5.944l7.432 7.432c3.824 3.816 5.936 8.912 5.936 14.328zm16-4.616v-.792c0-9.688-3.776-18.808-10.632-25.656l-7.432-7.432c-6.848-6.848-15.96-10.624-25.648-10.624h-13.152c-6.8 0-13.112-3.376-16.88-9.032l-18.848-28.28c-2.232-3.344-3.408-7.232-3.408-11.248v-27.44c0-15.44-12.56-28-28-28s-28 12.56-28 28v16.288c0 5.416-2.112 10.512-5.944 14.344l-7.432 7.432c-3.824 3.824-8.92 5.936-14.336 5.936-20.008 0-36.288 16.28-36.288 36.288v1.416c-28.632-22.744-51.768-52.072-67.12-85.704h4.776c6.232 0 12.088-2.424 16.496-6.832l15.024-15.024c4.4-4.408 6.824-10.264 6.824-16.488v-10.328c0-4.04 3.288-7.328 7.328-7.328 2.56 0 4.968 1.36 6.28 3.56l15.384 25.64c4 6.664 11.304 10.808 19.072 10.808h1.688c12.264-.008 22.248-9.992 22.248-22.256 0-1.808-.224-3.616-.664-5.4l-7.12-28.464c-.144-.576-.216-1.176-.216-1.776v-30.792c0-4.032 3.288-7.32 7.328-7.32h41.352c12.856 0 23.32-10.464 23.32-23.328v-12.032c0-4.624-1.352-9.104-3.92-12.936l-10.856-16.288c-.8-1.2-1.224-2.6-1.224-4.056v-28.032c0-12.864-10.464-23.328-23.328-23.328h-9.352c-4.032 0-7.32-3.288-7.32-7.504 0-2.536 1.288-4.856 3.448-6.208l49.592-31c6.864-4.296 10.96-11.688 10.96-19.784v-9.16c0-6.232-2.424-12.088-6.832-16.496l-3.32-3.32c11.152-1.648 22.552-2.528 34.152-2.528 10.864 0 21.528.808 32 2.256v24.824c0 11.536-9.384 20.92-20.92 20.92-14.928 0-27.08 12.152-27.08 27.08 0 11.136 6.68 21 17.024 25.144l21.968 8.792c1.264.504 2.168 1.6 2.44 2.936l3.28 16.384c.512 2.592-.608 4.448-1.328 5.328-.728.864-2.328 2.336-4.968 2.336-12.36 0-22.416 10.056-22.416 22.416v11.168c0 12.36 10.056 22.416 22.416 22.416h13.584c2.208 0 4 1.792 4 4 0 15.44 12.56 28 28 28h4c17.648 0 32-14.352 32-32v-12c0-6.616 5.384-12 12-12s12 5.384 12 12v32c0 24.264-19.736 44-44 44-11.024 0-20 8.976-20 20v24c0 2.208-1.792 4-4 4-11.024 0-20 8.976-20 20 0 20.016 6.224 39.16 18 55.352l2.064 2.832c15.4 21.176 40.216 33.816 66.4 33.816h14.608c-20.584 15.824-43.88 28.256-69.072 36.504zm87.752-52.504h-33.28c-21.08 0-41.064-10.176-53.464-27.224l-2.064-2.832c-9.776-13.448-14.944-29.328-14.944-45.944 0-2.208 1.792-4 4-4 11.024 0 20-8.976 20-20v-24c0-2.208 1.792-4 4-4 33.088 0 60-26.912 60-60v-32c0-15.44-12.56-28-28-28s-28 12.56-28 28v12c0 8.824-7.176 16-16 16h-4c-6.616 0-12-5.384-12-12 0-11.024-8.976-20-20-20h-13.584c-3.536 0-6.416-2.88-6.416-6.416v-11.168c0-3.536 2.88-6.416 6.416-6.416 6.744 0 13.064-2.992 17.336-8.208 4.28-5.216 5.968-12 4.648-18.608l-3.28-16.376c-1.328-6.648-5.88-12.128-12.176-14.648l-21.968-8.792c-4.24-1.696-6.976-5.728-6.976-10.288 0-6.104 4.976-11.08 11.08-11.08 20.36 0 36.92-16.56 36.92-36.92v-22.056c104.968 22.176 184 115.504 184 226.976 0 66.056-27.8 125.704-72.248 168z"/><path d="m328 88h16v16h-16z"/><path d="m408 152h16v16h-16z"/><path d="m168 424h16v16h-16z"/><path d="m120 176h16v16h-16z"/><path d="m72 128h16v16h-16z"/><path d="m48 216h16v16h-16z"/></svg>