<svg enable-background="new 1195.59 176 160 160" height="160" viewBox="1195.59 176 160 160" width="160" xmlns="http://www.w3.org/2000/svg"><g fill="#4a4a4a"><path d="m1274.126 327.744c-39.838 0-72.25-32.412-72.25-72.25s32.412-72.25 72.25-72.25 72.25 32.412 72.25 72.25-32.412 72.25-72.25 72.25zm0-140.121c-37.425 0-67.871 30.446-67.871 67.871 0 37.426 30.446 67.872 67.871 67.872s67.871-30.445 67.871-67.872c0-37.426-30.446-67.871-67.871-67.871z"/><path d="m1274.122 288.723c-10.414 0-20.822-2.854-30.109-8.572l-1.734-1.068c-1.029-.641-1.348-1.982-.718-3.014.631-1.027 1.98-1.348 3.014-.713l1.732 1.068c17.162 10.566 38.473 10.572 55.629-.004l1.734-1.074c1.029-.629 2.381-.314 3.012.715.635 1.029.316 2.379-.713 3.012l-1.738 1.074c-9.284 5.718-19.696 8.576-30.109 8.576z"/><path d="m1263.756 241.701c-.56 0-1.12-.216-1.549-.641l-8.618-8.617-8.617 8.617c-.853.854-2.241.854-3.096 0-.854-.854-.854-2.241 0-3.095l10.164-10.163c.854-.854 2.243-.854 3.095 0l10.163 10.163c.854.854.854 2.241 0 3.095-.42.425-.98.641-1.542.641z"/><path d="m1304.825 241.701c-.561 0-1.12-.216-1.55-.641l-8.617-8.617-8.618 8.617c-.853.854-2.241.854-3.095 0s-.854-2.241 0-3.095l10.163-10.163c.854-.854 2.242-.854 3.095 0l10.163 10.163c.854.854.854 2.241 0 3.095-.42.425-.979.641-1.541.641z"/></g></svg>