<?xml version="1.0" encoding="utf-8"?>
<!-- Generator: Adobe Illustrator 16.0.0, SVG Export Plug-In . SVG Version: 6.00 Build 0)  -->
<!DOCTYPE svg PUBLIC "-//W3C//DTD SVG 1.1//EN" "http://www.w3.org/Graphics/SVG/1.1/DTD/svg11.dtd">
<svg version="1.1" id="Capa_1" xmlns="http://www.w3.org/2000/svg" xmlns:xlink="http://www.w3.org/1999/xlink" x="0px" y="0px"
	 width="160px" height="160px" viewBox="1195.59 176 160 160" enable-background="new 1195.59 176 160 160" xml:space="preserve">
<g>
	<g>
		<g>
			<path fill="#EDEDED" d="M1275.708,212.064c-21.861,0-39.721,17.86-39.721,39.721c0,11.43,5.001,22.433,13.431,29.861
				c6.287,6.287,5.715,19.718,5.572,19.86c0,0.714,0.143,1.286,0.714,1.857c0.428,0.43,1.143,0.715,1.714,0.715h36.435
				c0.714,0,1.285-0.285,1.715-0.715c0.428-0.428,0.714-1.144,0.714-1.857c0-0.143-0.714-13.573,5.572-19.86
				c0.143-0.143,0.286-0.286,0.429-0.428c8.287-7.573,13.145-18.29,13.145-29.434
				C1315.428,229.924,1297.567,212.064,1275.708,212.064z M1298.567,277.932c-0.142,0.144-0.428,0.429-0.428,0.572
				c-5.573,6.001-6.572,15.858-6.715,20.574h-31.577c-0.143-4.716-1.143-15.003-7.144-21.146
				c-7.572-6.572-12.001-16.145-12.001-26.29c0-19.289,15.574-34.863,34.862-34.863c19.289,0,34.863,15.574,34.863,34.863
				C1310.428,261.787,1306.141,271.359,1298.567,277.932z"/>
			<path fill="#EDEDED" d="M1275.564,222.209c-1.286,0-2.429,1.143-2.429,2.429c0,1.286,1.143,2.429,2.429,2.429
				c14.431,0,26.004,11.716,26.004,26.005c0,1.286,1.144,2.429,2.429,2.429c1.287,0,2.431-1.143,2.431-2.429
				C1306.569,236.068,1292.71,222.209,1275.564,222.209z"/>
			<path fill="#EDEDED" d="M1291.425,306.794h-31.72c-3.286,0-6.001,2.715-6.001,6c0,3.287,2.715,6.002,6.001,6.002h31.576
				c3.43-0.143,6.145-2.715,6.145-6.002C1297.426,309.509,1294.711,306.794,1291.425,306.794z M1291.425,313.795h-31.72
				c-0.571,0-1.143-0.429-1.143-1.143c0-0.715,0.429-1.144,1.143-1.144h31.576c0.571,0,1.143,0.429,1.143,1.144
				C1292.424,313.366,1291.996,313.795,1291.425,313.795z"/>
			<path fill="#EDEDED" d="M1286.709,321.225h-22.289c-3.287,0-6.001,2.715-6.001,6.001s2.715,6.001,6.001,6.001h22.289
				c3.286,0,6.001-2.715,6.001-6.001C1292.71,323.797,1289.995,321.225,1286.709,321.225z M1286.709,328.226h-22.289
				c-0.572,0-1.144-0.429-1.144-1.143c0-0.715,0.429-1.144,1.144-1.144h22.289c0.571,0,1.144,0.429,1.144,1.144
				C1287.853,327.797,1287.28,328.226,1286.709,328.226z"/>
			<path fill="#EDEDED" d="M1275.564,200.206c1.429,0,2.429-1.143,2.429-2.429v-16.575c0-1.285-1.142-2.429-2.429-2.429
				c-1.286,0-2.429,1.144-2.429,2.429v16.575C1273.136,199.063,1274.279,200.206,1275.564,200.206z"/>
			<path fill="#EDEDED" d="M1316,191.061c-1.144-0.857-2.571-0.429-3.287,0.571l-9.144,13.717c-0.857,1.143-0.571,2.715,0.571,3.429
				c0.429,0.286,0.857,0.428,1.285,0.428c0.858,0,1.572-0.428,2.001-1.143l9.145-13.717
				C1317.429,193.347,1317.143,191.775,1316,191.061z"/>
			<path fill="#EDEDED" d="M1246.56,208.636c0.428,0,0.857-0.143,1.286-0.429c1.143-0.715,1.429-2.286,0.715-3.43l-8.859-13.859
				c-0.714-1.143-2.286-1.429-3.429-0.714c-1.144,0.714-1.429,2.286-0.714,3.429l8.858,13.859
				C1244.988,208.35,1245.703,208.636,1246.56,208.636z"/>
			<path fill="#EDEDED" d="M1229.271,223.781l-14.431-7.858c-1.143-0.572-2.714-0.143-3.286,1c-0.715,1.143-0.286,2.714,1,3.286
				l14.431,7.858c0.429,0.143,0.715,0.286,1.143,0.286c0.857,0,1.714-0.429,2.144-1.286
				C1230.843,225.924,1230.415,224.353,1229.271,223.781z"/>
			<path fill="#EDEDED" d="M1339.717,216.922c-0.57-1.143-2.143-1.572-3.285-1l-14.574,7.858c-1.143,0.572-1.571,2.143-1,3.286
				c0.43,0.857,1.285,1.286,2.144,1.286c0.429,0,0.856-0.143,1.143-0.286l14.574-7.858
				C1339.86,219.637,1340.289,218.065,1339.717,216.922z"/>
		</g>
	</g>
</g>
</svg>
