<svg enable-background="new 0 0 512.005 512.005" viewBox="0 0 512.005 512.005" xmlns="http://www.w3.org/2000/svg"><path d="m162.677 199.606c-1.365-2.679-4.036-4.437-7.031-4.633l-71.786-4.787c-3.72-.367-7.159 1.937-8.516 5.401l-51.751 132.258c-1.391 3.55-.256 7.586 2.782 9.898 1.519 1.16 3.345 1.741 5.162 1.741 1.8 0 3.601-.563 5.12-1.706l42.954-32.211 25.01 5c4.079.811 8.157-1.425 9.642-5.324 13.431-35.181 29.6-67.895 48.039-97.222 1.596-2.545 1.741-5.745.375-8.415zm-61.743 92.819-21.724-4.343c-2.372-.469-4.847.094-6.792 1.544l-22.006 16.502 38.542-98.502 51.521 3.43c-14.847 25.13-28.107 52.417-39.541 81.369z"/><path d="m321.822 428.156-4.787-71.795c-.205-3.004-1.963-5.674-4.642-7.04-2.671-1.365-5.871-1.229-8.413.375-29.336 18.439-62.042 34.609-97.222 48.039-3.891 1.476-6.144 5.555-5.324 9.642l5 25.01-32.211 42.945c-2.287 3.055-2.278 7.253.034 10.291 1.647 2.167 4.181 3.37 6.792 3.37 1.041 0 2.091-.196 3.114-.572l132.258-51.751c3.464-1.355 5.648-4.803 5.401-8.514zm-115.952 33.423 16.502-22.006c1.451-1.937 2.014-4.411 1.536-6.792l-4.343-21.716c28.96-11.434 56.239-24.694 81.368-39.541l3.439 51.512z"/><path d="m247.45 256.007h-57.494c-3.097 0-5.947 1.681-7.458 4.386l-72.162 129.664c-1.877 3.379-1.246 7.611 1.536 10.291 1.63 1.57 3.771 2.389 5.922 2.389 1.519 0 3.046-.401 4.411-1.237l129.664-78.467c2.551-1.544 4.113-4.309 4.113-7.295v-51.198c.001-4.71-3.822-8.533-8.532-8.533zm-8.532 54.926-98.033 59.328 54.081-97.18v-.009h43.952z"/><path d="m511.574 8.224c-.35-4.155-3.643-7.449-7.799-7.799-2.833-.222-283.825-19.839-405.451 298.724-1.203 3.149-.444 6.698 1.937 9.079l40.573 40.573c1.903 1.903 4.565 2.773 7.236 2.415 2.654-.384 4.975-1.988 6.272-4.335l40.65-73.808h43.927v37.962l-74.252 46.879c-2.193 1.391-3.635 3.695-3.925 6.272s.614 5.145 2.449 6.98l40.573 40.573c1.63 1.63 3.806 2.5 6.033 2.5 1.024 0 2.056-.179 3.046-.563 318.578-121.635 298.97-402.627 298.731-405.452zm-44.763 151.389c-29.942 74.081-98.46 174.794-254.908 236.136l-29.097-29.097 69.201-43.688c2.474-1.57 3.976-4.292 3.976-7.219v-51.197c0-4.71-3.823-8.533-8.533-8.533h-57.511c-3.114 0-5.973 1.698-7.475 4.42l-37.604 68.279-28.61-28.619c106.771-272.382 334.357-283.526 378.599-282.903.316 19.899-1.51 76.778-28.038 142.421z"/><path d="m146.166 376.874c-1.852-2.457-4.804-3.652-7.697-3.345.299-2.901-.896-5.845-3.345-7.697-12.867-9.727-29.472-12.961-45.573-8.883-17.091 4.343-31.068 15.999-38.338 31.998l-50.445 110.986c-1.476 3.242-.785 7.057 1.732 9.565 1.63 1.638 3.814 2.5 6.033 2.5 1.195 0 2.398-.256 3.533-.768l110.986-50.454c15.99-7.261 27.646-21.238 31.989-38.329 4.087-16.084.853-32.697-8.875-45.573zm-7.662 41.375c-3.055 12.04-11.263 21.878-22.509 26.998l-90.277 41.034 41.034-90.285c5.111-11.246 14.958-19.455 26.998-22.509 3.166-.802 6.348-1.195 9.488-1.195 5.316 0 10.512 1.135 15.248 3.345l-8.123 14.378c-1.886 3.336-1.314 7.526 1.399 10.231 2.713 2.722 6.903 3.285 10.231 1.399l14.378-8.132c3.498 7.526 4.292 16.22 2.133 24.736z"/><path d="m511.574 8.233c-.35-4.155-3.644-7.449-7.799-7.799-3.328-.265-82.427-6.255-175.451 36.597-2.534 1.16-4.335 3.498-4.83 6.246s.393 5.563 2.364 7.534l135.33 135.33c1.613 1.613 3.789 2.5 6.033 2.5.503 0 1.007-.043 1.51-.128 2.748-.495 5.077-2.295 6.246-4.83 42.86-93.024 36.87-172.131 36.597-175.45zm-47.118 157.028-117.718-117.718c68.1-28.747 127.735-30.727 148.12-30.385.341 20.402-1.579 79.85-30.402 148.103z"/><path d="m376.841 135.158c-28.696-28.696-75.378-28.696-104.074 0s-28.696 75.378 0 104.074c14.344 14.352 33.193 21.52 52.033 21.52 18.849 0 37.689-7.176 52.041-21.52 28.696-28.696 28.696-75.379 0-104.074zm-12.065 92.008c-22.04 22.04-57.903 22.04-79.943 0s-22.04-57.903 0-79.943c11.016-11.016 25.496-16.528 39.968-16.528s28.952 5.512 39.976 16.528c22.039 22.04 22.039 57.903-.001 79.943z"/><path d="m341.763 204.162c-9.352 9.369-24.574 9.36-33.935 0-9.352-9.36-9.352-24.574 0-33.935 9.352-9.352 24.574-9.36 33.935 0 3.328 3.336 8.738 3.336 12.065 0 3.336-3.336 3.336-8.729 0-12.065-15.999-16.007-42.058-16.007-58.065 0-16.008 16.007-16.008 42.058 0 58.065 8.004 8.004 18.525 12.006 29.037 12.006 10.521 0 21.033-4.002 29.028-12.006 3.336-3.336 3.336-8.729 0-12.065-3.328-3.336-8.737-3.336-12.065 0z"/></svg>