<svg xmlns="http://www.w3.org/2000/svg" viewBox="0 0 101.67 92"><defs><style>.cls-1,.cls-4{fill:#fff;}.cls-1{opacity:0.4;}.cls-2{fill:#454544;}.cls-3{fill:#1d1d1b;}.cls-5{fill:#2b251c;}.cls-6{fill:#f07e2d;}.cls-7{fill:#f2e375;}.cls-8{fill:#85c5ca;}</style></defs><title>Asset 6_app-development</title><g id="Layer_2" data-name="Layer 2"><g id="Livello_2" data-name="Livello 2"><circle class="cls-1" cx="52.93" cy="46" r="46" transform="translate(-13.69 24.11) rotate(-22.8)"/><path class="cls-2" d="M54.38,16.3l-51.57,0A2.31,2.31,0,0,0,.5,18.66l0,39.08a2.32,2.32,0,0,0,2.31,2.31l51.58,0a2.3,2.3,0,0,0,2.3-2.31l0-39.08A2.32,2.32,0,0,0,54.38,16.3Z"/><path class="cls-3" d="M54.38,15.8l-51.57,0A2.82,2.82,0,0,0,0,18.66L0,57.74a2.81,2.81,0,0,0,2.81,2.81h0l51.58,0a2.8,2.8,0,0,0,2.8-2.81l0-39.08A2.83,2.83,0,0,0,54.38,15.8Zm0,43.7-51.58,0A1.81,1.81,0,0,1,1,57.74L1,18.66a1.82,1.82,0,0,1,1.81-1.82l51.57,0a1.82,1.82,0,0,1,1.82,1.81l0,39.08A1.8,1.8,0,0,1,54.42,59.5Z"/><rect class="cls-4" x="3.92" y="20.15" width="49.39" height="36.04"/><path class="cls-5" d="M53.65,19.78a.49.49,0,0,0-.36-.15h0l-49.39,0a.51.51,0,0,0-.5.5l0,36a.49.49,0,0,0,.15.36.5.5,0,0,0,.35.14h0l49.39,0a.5.5,0,0,0,.5-.5l0-36A.5.5,0,0,0,53.65,19.78ZM4.43,55.71l0-35,48.39,0,0,35Z"/><rect class="cls-6" x="3.91" y="20.33" width="49.4" height="7.37"/><path class="cls-3" d="M53.31,19.83H3.91a.5.5,0,0,0-.5.5V27.7a.5.5,0,0,0,.5.5h49.4a.5.5,0,0,0,.5-.5V20.33A.5.5,0,0,0,53.31,19.83Zm-.5,7.37H4.41V20.83h48.4Z"/><path class="cls-4" d="M48.36,22.59A1.43,1.43,0,1,0,49.78,24,1.42,1.42,0,0,0,48.36,22.59Z"/><path class="cls-3" d="M48.36,22.09A1.93,1.93,0,1,0,50.28,24,1.92,1.92,0,0,0,48.36,22.09Zm0,2.85a.93.93,0,1,1,.92-.93A.93.93,0,0,1,48.36,24.94Z"/><path class="cls-4" d="M43.8,22.59A1.43,1.43,0,1,0,45.22,24,1.42,1.42,0,0,0,43.8,22.59Z"/><path class="cls-3" d="M43.8,22.09A1.93,1.93,0,1,0,45.72,24,1.92,1.92,0,0,0,43.8,22.09Zm0,2.85a.93.93,0,1,1,.92-.93A.93.93,0,0,1,43.8,24.94Z"/><path class="cls-7" d="M27.43,43a10.11,10.11,0,0,0-.16-1.63l-1.53-.1a3.74,3.74,0,0,0-.12-.45c-.05-.16-.1-.3-.16-.45l1.19-1A8.58,8.58,0,0,0,25.86,38l-1.43.53a6.22,6.22,0,0,0-.63-.73l.71-1.35a9.49,9.49,0,0,0-1.3-1l-1.09,1.06a7.23,7.23,0,0,0-.89-.42l.09-1.53a9.11,9.11,0,0,0-1.56-.38l-.57,1.41a8.69,8.69,0,0,0-1,0l-.54-1.43a9.62,9.62,0,0,0-1.57.29l.06,1.51a7.91,7.91,0,0,0-1,.41l-1.07-1.09a8.52,8.52,0,0,0-1.3.89l.67,1.36a6.54,6.54,0,0,0-.77.81l-1.42-.56a8.59,8.59,0,0,0-.81,1.33l1.16,1a8.13,8.13,0,0,0-.38,1.08l-1.52.07a8.77,8.77,0,0,0-.19,1.53l1.46.42a6.6,6.6,0,0,0,.11,1.16L9.71,45c0,.25.12.5.19.75a7.66,7.66,0,0,0,.27.72l1.5-.22a7.27,7.27,0,0,0,.58,1l-1,1.18a9.31,9.31,0,0,0,1,1.15l1.29-.82a7.73,7.73,0,0,0,.94.68l-.41,1.46a9.13,9.13,0,0,0,1.43.63l.85-1.27a7.81,7.81,0,0,0,1.09.23l.22,1.5a9.27,9.27,0,0,0,1.58,0l.26-1.51a6.27,6.27,0,0,0,1-.24l.82,1.28a9.53,9.53,0,0,0,1.45-.65l-.37-1.49a7,7,0,0,0,.82-.61l1.27.84a9.45,9.45,0,0,0,1.07-1.21l-.95-1.2a7.2,7.2,0,0,0,.49-.85l1.5.25a9.34,9.34,0,0,0,.5-1.55l-1.35-.71a6.13,6.13,0,0,0,.1-1Zm-8.07,3a3.12,3.12,0,1,1,2.05-3.9A3.11,3.11,0,0,1,19.36,46.05Z"/><path class="cls-3" d="M18.43,39.46a3.62,3.62,0,0,0-1.08.16,3.62,3.62,0,1,0,2.16,6.91,3.62,3.62,0,0,0-1.08-7.07Zm.78,6.12a2.65,2.65,0,0,1-3.28-1.72,2.61,2.61,0,0,1,1.72-3.28,2.61,2.61,0,0,1,3.28,1.72A2.63,2.63,0,0,1,19.21,45.58Z"/><path class="cls-3" d="M27.3,40.88l-1.17-.07a.5.5,0,0,0,0-.13.5.5,0,0,0,0-.13l.92-.73a.51.51,0,0,0,.14-.59,9.25,9.25,0,0,0-.84-1.51.49.49,0,0,0-.58-.19l-1.09.4-.19-.21.54-1a.5.5,0,0,0-.11-.6,8.67,8.67,0,0,0-1.37-1,.5.5,0,0,0-.61.07l-.83.8-.28-.13.07-1.18a.48.48,0,0,0-.34-.5,9.24,9.24,0,0,0-1.65-.4.5.5,0,0,0-.54.31l-.43,1.07h-.35L18.1,34a.51.51,0,0,0-.52-.32,9.4,9.4,0,0,0-1.65.31.5.5,0,0,0-.37.5l0,1.15a2.39,2.39,0,0,0-.37.15l-.83-.84a.5.5,0,0,0-.6-.09,9.78,9.78,0,0,0-1.37.94.51.51,0,0,0-.13.61l.51,1c-.11.1-.21.21-.31.32l-1.09-.43a.52.52,0,0,0-.59.17A9.1,9.1,0,0,0,10,38.87a.49.49,0,0,0,.13.6l.88.74c-.06.15-.11.3-.16.45l-1.16.05a.51.51,0,0,0-.47.4A9.83,9.83,0,0,0,9,42.73a.5.5,0,0,0,.36.5l1.11.31c0,.17,0,.33,0,.5l-1,.52a.5.5,0,0,0-.26.55,7.69,7.69,0,0,0,.21.79c.08.26.17.51.27.76a.52.52,0,0,0,.54.31l1.14-.17.25.44-.73.89a.5.5,0,0,0,0,.62A9.53,9.53,0,0,0,12,50a.5.5,0,0,0,.61.06l1-.62c.12.1.26.19.39.28l-.31,1.11a.5.5,0,0,0,.24.57,9.38,9.38,0,0,0,1.5.66.49.49,0,0,0,.58-.19l.65-1a3.43,3.43,0,0,0,.44.09l.17,1.14a.49.49,0,0,0,.45.42c.26,0,.52,0,.78,0a8.85,8.85,0,0,0,.89,0,.5.5,0,0,0,.44-.41l.2-1.16.39-.09.62,1a.48.48,0,0,0,.58.2,9.75,9.75,0,0,0,1.54-.69.52.52,0,0,0,.24-.56l-.29-1.14.28-.21,1,.64a.51.51,0,0,0,.62-.06,9.15,9.15,0,0,0,1.13-1.27.51.51,0,0,0,0-.61l-.73-.92c.06-.09.11-.18.16-.27l1.13.19a.51.51,0,0,0,.55-.3,10,10,0,0,0,.53-1.63.51.51,0,0,0-.25-.56l-1-.54,0-.28,1.12-.29a.5.5,0,0,0,.38-.49,10,10,0,0,0-.17-1.72A.51.51,0,0,0,27.3,40.88Zm-1.47,2a.5.5,0,0,0-.37.46,8.65,8.65,0,0,1-.1.89.5.5,0,0,0,.26.53l1,.53c-.07.24-.15.49-.24.73l-1.1-.19a.5.5,0,0,0-.53.28,7.16,7.16,0,0,1-.46.8.51.51,0,0,0,0,.58l.7.89a6.8,6.8,0,0,1-.5.57l-.92-.61a.5.5,0,0,0-.6,0,7.3,7.3,0,0,1-.77.57.5.5,0,0,0-.22.54l.28,1.11c-.22.11-.44.21-.67.3L21,50a.51.51,0,0,0-.57-.22,6,6,0,0,1-1,.22.52.52,0,0,0-.42.41l-.19,1.13h-.71L18,50.43a.49.49,0,0,0-.43-.42,6.83,6.83,0,0,1-1-.21A.49.49,0,0,0,16,50l-.63,1c-.21-.09-.43-.18-.64-.29l.3-1.07A.5.5,0,0,0,14.8,49a6,6,0,0,1-.87-.63.5.5,0,0,0-.59,0l-1,.6a5.47,5.47,0,0,1-.45-.51l.71-.86a.49.49,0,0,0,0-.6,8,8,0,0,1-.54-1,.5.5,0,0,0-.52-.28l-1.11.16c0-.11-.08-.21-.11-.32l-.09-.33,1-.5a.49.49,0,0,0,.27-.53,6.7,6.7,0,0,1-.1-1.09.49.49,0,0,0-.36-.47L10,42.37c0-.22.05-.45.09-.68l1.12,0a.48.48,0,0,0,.46-.37,8.64,8.64,0,0,1,.36-1,.51.51,0,0,0-.14-.59L11.06,39c.11-.2.23-.4.36-.59l1.05.41a.49.49,0,0,0,.57-.15,7.27,7.27,0,0,1,.72-.75.51.51,0,0,0,.12-.59l-.49-1c.19-.14.38-.28.58-.4l.8.81a.52.52,0,0,0,.58.1,6.46,6.46,0,0,1,.93-.38.5.5,0,0,0,.34-.49l0-1.11c.24-.06.48-.1.72-.14l.4,1.07a.49.49,0,0,0,.49.32,7.48,7.48,0,0,1,.95,0,.53.53,0,0,0,.52-.31l.41-1a6,6,0,0,1,.73.17l-.07,1.14a.5.5,0,0,0,.32.49,9,9,0,0,1,.83.4.5.5,0,0,0,.59-.08l.8-.78c.21.15.41.3.61.47l-.52,1a.5.5,0,0,0,.09.59,7.54,7.54,0,0,1,.58.67.5.5,0,0,0,.57.16l1.06-.38c.13.22.26.44.37.67l-.88.71a.52.52,0,0,0-.16.57,3,3,0,0,1,.15.42c.05.14.08.28.12.42a.49.49,0,0,0,.45.38l1.13.08c0,.25.06.51.08.77Z"/><path class="cls-6" d="M47.5,38.87a8.46,8.46,0,0,0-.31-.84l-2,.15a8.53,8.53,0,0,0-1.47-2.07l.81-1.88a11.17,11.17,0,0,0-1.43-1l-1.56,1.31a8.46,8.46,0,0,0-2.41-.81l-.44-2a9.61,9.61,0,0,0-1.78,0l-.49,2a7.94,7.94,0,0,0-1.24.29,8.93,8.93,0,0,0-1.19.47l-1.53-1.35a11.5,11.5,0,0,0-1.45,1L31.75,36a8.12,8.12,0,0,0-1.51,2l-2-.19a9.88,9.88,0,0,0-.57,1.69l1.73,1.07a8.38,8.38,0,0,0,0,2.55l-1.75,1a8.37,8.37,0,0,0,.23.86q.13.44.3.84l2-.15a8.36,8.36,0,0,0,1.48,2.08l-.81,1.87a10,10,0,0,0,1.43,1.06l1.55-1.32a8.26,8.26,0,0,0,2.41.81l.45,2a10.57,10.57,0,0,0,1.78,0l.48-2A8,8,0,0,0,40.17,50a7.67,7.67,0,0,0,1.18-.48l1.53,1.35a8.83,8.83,0,0,0,1.45-1l-.77-1.89a8.41,8.41,0,0,0,1.52-2l2,.19a10.71,10.71,0,0,0,.57-1.68l-1.74-1.08a8.31,8.31,0,0,0,0-2.54l1.76-1C47.66,39.44,47.59,39.16,47.5,38.87ZM37.65,35a.89.89,0,0,1,.86.9.88.88,0,1,1-.86-.9Zm-5.08,5.17a.88.88,0,0,1-1.64-.62.88.88,0,1,1,1.64.62Zm2.15,7.38a.88.88,0,0,1-1.44-1,.89.89,0,0,1,1.22-.22A.88.88,0,0,1,34.72,47.53Zm4-2.07a3.68,3.68,0,1,1,2.41-4.61A3.68,3.68,0,0,1,38.76,45.46Zm2.79,2.25a.88.88,0,1,1-1-1.43.88.88,0,0,1,1,1.43ZM43.61,41a.86.86,0,0,1-1.09-.57.88.88,0,0,1,.57-1.1.89.89,0,0,1,1.1.58A.87.87,0,0,1,43.61,41Z"/><path class="cls-3" d="M33,40.32a1.37,1.37,0,0,0-.8-1.77,1.42,1.42,0,0,0-1.78.81,1.39,1.39,0,0,0,.81,1.77,1.56,1.56,0,0,0,.48.08A1.37,1.37,0,0,0,33,40.32ZM32.1,40a.37.37,0,0,1-.7-.26.39.39,0,0,1,.35-.25.28.28,0,0,1,.13,0A.36.36,0,0,1,32.1,40Z"/><path class="cls-3" d="M37.63,37.23a1.38,1.38,0,0,0,0-2.75,1.38,1.38,0,1,0,0,2.75Zm0-1.75v0a.38.38,0,1,1,0,.75.37.37,0,0,1-.37-.38A.38.38,0,0,1,37.63,35.48Z"/><path class="cls-3" d="M48.21,39.62c-.06-.3-.14-.6-.23-.9s-.21-.59-.32-.88a.51.51,0,0,0-.5-.31l-1.71.13A8.66,8.66,0,0,0,44.28,36L45,34.43a.51.51,0,0,0-.13-.57,10.39,10.39,0,0,0-1.5-1.11.5.5,0,0,0-.58,0l-1.31,1.1a8.69,8.69,0,0,0-1.92-.65l-.38-1.67a.49.49,0,0,0-.44-.39,10.49,10.49,0,0,0-1.86,0,.5.5,0,0,0-.45.38L36,33.21c-.33.07-.66.15-1,.25a7.74,7.74,0,0,0-1,.36l-1.29-1.13a.48.48,0,0,0-.58-.06,10.41,10.41,0,0,0-1.52,1.08.49.49,0,0,0-.14.57l.65,1.59A8.65,8.65,0,0,0,30,37.49l-1.71-.16a.51.51,0,0,0-.5.3,11.53,11.53,0,0,0-.6,1.77.5.5,0,0,0,.22.54l1.46.9a8.62,8.62,0,0,0,0,2l-1.47.87a.5.5,0,0,0-.24.54q.11.45.24.9a9.25,9.25,0,0,0,.32.88.5.5,0,0,0,.5.31l1.7-.13A8.78,8.78,0,0,0,31,47.9l-.68,1.57a.48.48,0,0,0,.13.57A10.88,10.88,0,0,0,32,51.15a.5.5,0,0,0,.59,0L33.88,50a9,9,0,0,0,1.92.64l.37,1.68a.52.52,0,0,0,.44.39c.34,0,.68,0,1,0l.85,0a.49.49,0,0,0,.44-.38l.41-1.66a9,9,0,0,0,1-.25c.32-.1.64-.22,1-.35l1.28,1.13a.5.5,0,0,0,.58.05,11.28,11.28,0,0,0,1.53-1.07.51.51,0,0,0,.14-.57L44.15,48a9.19,9.19,0,0,0,1.21-1.63l1.7.16a.53.53,0,0,0,.51-.3,10.4,10.4,0,0,0,.59-1.76.49.49,0,0,0-.22-.55l-1.45-.9a9.18,9.18,0,0,0,0-2L48,40.16A.49.49,0,0,0,48.21,39.62Zm-2.49.72a.48.48,0,0,0-.24.5,8,8,0,0,1,0,2.39.52.52,0,0,0,.23.51l1.42.88c-.09.31-.19.62-.31.92l-1.66-.16a.52.52,0,0,0-.49.27,8.35,8.35,0,0,1-1.43,1.92.49.49,0,0,0-.11.54l.63,1.55a8.68,8.68,0,0,1-.79.56l-1.26-1.1a.49.49,0,0,0-.54-.07,9,9,0,0,1-1.12.44,7.93,7.93,0,0,1-1.17.27.5.5,0,0,0-.41.38L38,51.76c-.33,0-.65,0-1,0l-.37-1.64a.5.5,0,0,0-.4-.38A8,8,0,0,1,34,49a.5.5,0,0,0-.55.06l-1.27,1.08a9.46,9.46,0,0,1-.79-.58L32.09,48a.49.49,0,0,0-.1-.54,7.88,7.88,0,0,1-1.39-2,.52.52,0,0,0-.48-.28l-1.67.13c-.05-.16-.11-.31-.16-.46s-.09-.32-.13-.47l1.44-.85a.52.52,0,0,0,.24-.51,7.67,7.67,0,0,1,0-2.39.46.46,0,0,0-.23-.5l-1.42-.88c.09-.31.2-.62.32-.93l1.66.16a.5.5,0,0,0,.49-.26,7.65,7.65,0,0,1,1.42-1.92.51.51,0,0,0,.12-.55l-.64-1.55c.26-.2.52-.38.8-.56l1.25,1.1a.49.49,0,0,0,.55.08,7.24,7.24,0,0,1,1.12-.44,7.67,7.67,0,0,1,1.17-.28.5.5,0,0,0,.41-.37l.39-1.62a8,8,0,0,1,1,0l.36,1.63a.5.5,0,0,0,.41.38,7.85,7.85,0,0,1,2.26.77.5.5,0,0,0,.55-.07l1.28-1.07a8.75,8.75,0,0,1,.78.58l-.66,1.53a.51.51,0,0,0,.1.55,7.42,7.42,0,0,1,1.38,1.95.51.51,0,0,0,.49.27l1.66-.12c.06.15.11.3.16.46s.09.31.13.47Z"/><path class="cls-3" d="M41.36,43.89a4.12,4.12,0,0,0,.28-3.19,4.18,4.18,0,1,0-4,5.43,4.46,4.46,0,0,0,1.25-.19A4.18,4.18,0,0,0,41.36,43.89ZM38.61,45a3.09,3.09,0,0,1-1,.15,3.18,3.18,0,0,1-.95-6.21,3.09,3.09,0,0,1,.95-.15,3.17,3.17,0,0,1,3,2.23,3.14,3.14,0,0,1-.22,2.42A3.1,3.1,0,0,1,38.61,45Z"/><path class="cls-3" d="M40.25,45.88a1.37,1.37,0,0,0,1.59,2.24,1.39,1.39,0,0,0,.56-.89,1.36,1.36,0,0,0-.24-1A1.4,1.4,0,0,0,40.25,45.88Zm1,1.42a.38.38,0,0,1-.52-.08.38.38,0,0,1,.09-.53.38.38,0,0,1,.21-.07.38.38,0,0,1,.31.16.35.35,0,0,1,.06.28A.36.36,0,0,1,41.26,47.3Z"/><path class="cls-3" d="M42.94,38.85a1.37,1.37,0,0,0,.41,2.68,1.4,1.4,0,0,0,.41-.06,1.37,1.37,0,1,0-.82-2.62Zm.74,1.48a.31.31,0,0,1-.22.18.37.37,0,0,1-.47-.24.38.38,0,0,1,.25-.47l.11,0a.38.38,0,0,1,.36.27A.35.35,0,0,1,43.68,40.33Z"/><path class="cls-3" d="M32.87,46.25a1.34,1.34,0,0,0-.22,1,1.31,1.31,0,0,0,.57.88,1.37,1.37,0,0,0,.78.25,1.38,1.38,0,0,0,.78-2.51A1.41,1.41,0,0,0,32.87,46.25Zm1.44,1a.39.39,0,0,1-.52.09.36.36,0,0,1-.16-.24.39.39,0,0,1,.06-.28.38.38,0,0,1,.31-.16.37.37,0,0,1,.21.06A.38.38,0,0,1,34.31,47.25Z"/><path class="cls-7" d="M96.75,1.65H65.41A4.4,4.4,0,0,0,61,6.06V24.2a4.4,4.4,0,0,0,4.41,4.41h4.11v6.32l5.68-6.32H96.75a4.41,4.41,0,0,0,4.42-4.41V6.06A4.41,4.41,0,0,0,96.75,1.65Z"/><path class="cls-3" d="M96.75,1.15H65.41A4.91,4.91,0,0,0,60.5,6.06V24.2a4.91,4.91,0,0,0,4.91,4.91H69v5.82a.5.5,0,0,0,.32.46.58.58,0,0,0,.18,0,.48.48,0,0,0,.37-.17l5.53-6.15H96.75a4.92,4.92,0,0,0,4.92-4.91V6.06A4.92,4.92,0,0,0,96.75,1.15Zm3.92,23.05a3.92,3.92,0,0,1-3.92,3.91H75.2a.53.53,0,0,0-.37.17L70,33.62v-5a.5.5,0,0,0-.5-.5H65.41A3.91,3.91,0,0,1,61.5,24.2V6.06a3.91,3.91,0,0,1,3.91-3.91H96.75a3.92,3.92,0,0,1,3.92,3.91Z"/><polygon class="cls-8" points="66.87 16.8 76.03 21.27 76.03 18.05 69.95 15.5 69.95 15.43 76.03 12.82 76.03 9.61 66.87 14.08 66.87 16.8"/><path class="cls-3" d="M66.37,17.11l10.16,5V17.71l-5.39-2.25,5.39-2.31V8.81l-10.16,5Zm1-2.71,8.16-4v2.08L69.75,15l-.3.2v.66l6.08,2.55v2.09l-8.16-4Z"/><polygon class="cls-8" points="77.09 23.88 80.03 23.88 84.77 7 81.81 7 77.09 23.88"/><path class="cls-3" d="M76.43,24.38h4l5-17.88h-4ZM84.11,7.5,79.65,23.38h-1.9L82.19,7.5Z"/><polygon class="cls-8" points="86.06 12.81 92.19 15.37 92.19 15.44 86.06 18.07 86.06 21.27 95.3 16.8 95.3 14.07 86.06 9.61 86.06 12.81"/><path class="cls-3" d="M85.56,13.14,91,15.41l-5.43,2.33v4.33l10.24-5V13.76L85.56,8.81Zm1-2.74,8.24,4v2.1l-8.24,4V18.4l5.83-2.5.3-.2V15l-6.13-2.55Z"/><rect class="cls-2" x="60.96" y="38.87" width="25.42" height="41.24" rx="1.19" ry="1.19"/><path class="cls-3" d="M85.19,38.37h-23a1.69,1.69,0,0,0-1.69,1.69V78.91a1.69,1.69,0,0,0,1.69,1.69h23a1.69,1.69,0,0,0,1.69-1.69V40.06A1.69,1.69,0,0,0,85.19,38.37Zm.69,40.54a.69.69,0,0,1-.69.69h-23a.69.69,0,0,1-.69-.69V40.06a.69.69,0,0,1,.69-.69h23a.69.69,0,0,1,.69.69Z"/><rect class="cls-4" x="62.66" y="43.94" width="22.02" height="31.4"/><path class="cls-5" d="M84.68,43.44h-22a.51.51,0,0,0-.5.5v31.4a.5.5,0,0,0,.5.5h22a.5.5,0,0,0,.5-.5V43.94A.51.51,0,0,0,84.68,43.44Zm-.5,31.4h-21V44.44h21Z"/><path class="cls-6" d="M80.91,58.57a6.5,6.5,0,0,0-.22-.62l-1.5.11a5.9,5.9,0,0,0-1.08-1.52l.6-1.38a8,8,0,0,0-1.06-.78l-1.14,1a6.23,6.23,0,0,0-1.78-.6l-.33-1.47a8.05,8.05,0,0,0-1.3,0l-.36,1.46a5.08,5.08,0,0,0-.92.21,5.45,5.45,0,0,0-.87.35l-1.13-1a7.23,7.23,0,0,0-1.06.75l.56,1.39A6.33,6.33,0,0,0,68.21,58l-1.5-.14a8.21,8.21,0,0,0-.42,1.24l1.28.79a6.16,6.16,0,0,0,0,1.87l-1.29.76c0,.22.1.43.17.64a6.32,6.32,0,0,0,.22.61l1.5-.11a5.79,5.79,0,0,0,1.08,1.53l-.59,1.38a7.33,7.33,0,0,0,1,.78l1.14-1a6.23,6.23,0,0,0,1.78.6l.33,1.47a8.05,8.05,0,0,0,1.3,0L74.6,67a7.62,7.62,0,0,0,.92-.21,6.58,6.58,0,0,0,.87-.35l1.13,1a7.23,7.23,0,0,0,1.06-.75L78,65.23a6,6,0,0,0,1.11-1.5l1.5.14a8.61,8.61,0,0,0,.42-1.24l-1.28-.79a6.16,6.16,0,0,0,0-1.87l1.29-.77C81,59,81,58.78,80.91,58.57Zm-7.24-2.86a.65.65,0,0,1,.63.66.66.66,0,0,1-.66.63.65.65,0,0,1,0-1.29Zm-3.74,3.8a.66.66,0,0,1-.83.38.65.65,0,0,1,.45-1.21A.66.66,0,0,1,69.93,59.51ZM71.51,65a.65.65,0,1,1-.16-.9A.65.65,0,0,1,71.51,65Zm3-1.53A2.7,2.7,0,1,1,76.25,60,2.7,2.7,0,0,1,74.48,63.42Zm2,1.66a.64.64,0,1,1,.16-.9A.65.65,0,0,1,76.53,65.08Zm1.52-4.95a.63.63,0,0,1-.8-.42.64.64,0,0,1,.42-.81.66.66,0,0,1,.81.43A.64.64,0,0,1,78.05,60.13Z"/><path class="cls-3" d="M73.65,57.5a1.16,1.16,0,0,0,1.15-1.12,1.17,1.17,0,0,0-.32-.82,1.16,1.16,0,0,0-.8-.35h0a1.15,1.15,0,0,0,0,2.29Zm0-1.29v0a.17.17,0,0,1,.14.15c0,.14-.3.14-.29,0A.14.14,0,0,1,73.65,56.21Z"/><path class="cls-3" d="M70.39,59.68a1.1,1.1,0,0,0,0-.87,1.12,1.12,0,0,0-.63-.6,1.19,1.19,0,0,0-1.48.67,1.14,1.14,0,1,0,2.14.8Z"/><path class="cls-3" d="M70,63.93a1.14,1.14,0,1,0,1.59-.29A1.17,1.17,0,0,0,70,63.93Z"/><path class="cls-3" d="M81.57,59.1c0-.23-.11-.46-.18-.68s-.15-.44-.24-.66a.49.49,0,0,0-.5-.31l-1.17.09a6.45,6.45,0,0,0-.78-1.1l.47-1.08a.53.53,0,0,0-.13-.58A10.14,10.14,0,0,0,77.92,54a.51.51,0,0,0-.59,0l-.9.76a6.46,6.46,0,0,0-1.28-.44l-.26-1.15a.49.49,0,0,0-.44-.39,9.2,9.2,0,0,0-1.39,0,.5.5,0,0,0-.45.38l-.28,1.14c-.22.05-.44.1-.66.17s-.42.15-.63.24l-.89-.78a.51.51,0,0,0-.58-.06,8.65,8.65,0,0,0-1.14.81.51.51,0,0,0-.14.57l.45,1.09a6.55,6.55,0,0,0-.81,1.09l-1.17-.11a.49.49,0,0,0-.5.29,8.33,8.33,0,0,0-.45,1.33.5.5,0,0,0,.22.54l1,.62a6.87,6.87,0,0,0,0,1.36L66,62a.51.51,0,0,0-.24.54c0,.23.11.45.18.68s.15.44.24.65a.5.5,0,0,0,.5.31l1.17-.08a6.45,6.45,0,0,0,.78,1.1l-.46,1.08a.49.49,0,0,0,.12.57,7.63,7.63,0,0,0,1.13.83.48.48,0,0,0,.58,0l.9-.76a6.42,6.42,0,0,0,1.28.43l.26,1.16a.49.49,0,0,0,.44.38,6.34,6.34,0,0,0,.76,0l.63,0a.5.5,0,0,0,.45-.38L75,67.39l.66-.17q.31-.1.63-.24l.89.78a.5.5,0,0,0,.58,0,7.75,7.75,0,0,0,1.14-.8.51.51,0,0,0,.14-.57l-.45-1.09a6.55,6.55,0,0,0,.81-1.09l1.17.11a.51.51,0,0,0,.5-.3,7.9,7.9,0,0,0,.45-1.32.5.5,0,0,0-.22-.54l-1-.62a6.18,6.18,0,0,0,0-1.36l1-.6A.49.49,0,0,0,81.57,59.1Zm-2,.44a.48.48,0,0,0-.24.5,5.83,5.83,0,0,1,0,1.72.48.48,0,0,0,.23.5l1,.6c0,.16-.11.32-.17.48l-1.12-.11a.53.53,0,0,0-.49.27,5.74,5.74,0,0,1-1,1.38.49.49,0,0,0-.12.54l.43,1-.41.29L76.72,66a.49.49,0,0,0-.55-.08,4.94,4.94,0,0,1-.8.32,6.39,6.39,0,0,1-.84.2.5.5,0,0,0-.41.37l-.27,1.1h-.51l-.24-1.1a.5.5,0,0,0-.41-.38,5.92,5.92,0,0,1-1.63-.55.5.5,0,0,0-.55.06l-.86.73-.41-.3.45-1a.51.51,0,0,0-.1-.55,5.77,5.77,0,0,1-1-1.4.5.5,0,0,0-.48-.28L67,63.2A2.25,2.25,0,0,0,66.9,63c0-.08-.05-.16-.07-.24l1-.58a.52.52,0,0,0,.24-.5,5.51,5.51,0,0,1,0-1.72.48.48,0,0,0-.23-.51l-1-.59c0-.16.11-.32.17-.48l1.12.1a.5.5,0,0,0,.49-.26,5.52,5.52,0,0,1,1-1.38.51.51,0,0,0,.11-.54l-.43-1,.41-.29.85.74a.51.51,0,0,0,.55.08,4.94,4.94,0,0,1,.8-.32,5.12,5.12,0,0,1,.84-.2.49.49,0,0,0,.41-.37l.27-1.1H74l.24,1.11a.5.5,0,0,0,.41.38,5.81,5.81,0,0,1,1.63.55.5.5,0,0,0,.55-.06l.86-.73.41.3-.45,1a.49.49,0,0,0,.1.54,5.82,5.82,0,0,1,1,1.41.49.49,0,0,0,.48.27l1.13-.08c0,.08,0,.16.08.24s0,.16.07.24Z"/><path class="cls-3" d="M77.52,58.43a1.14,1.14,0,0,0,.34,2.23,1.27,1.27,0,0,0,.34,0A1.14,1.14,0,0,0,79,59.18,1.15,1.15,0,0,0,77.52,58.43Zm.34,1.23a.14.14,0,0,1,0-.28h0a.16.16,0,0,1,.14.1C78,59.55,78,59.63,77.86,59.66Z"/><path class="cls-3" d="M76.73,59.88a3.2,3.2,0,0,0-3.06-2.25,3.21,3.21,0,0,0-3.06,4.17,3.2,3.2,0,0,0,3.06,2.25,3.15,3.15,0,0,0,1-.15A3.21,3.21,0,0,0,76.73,59.88Zm-2.4,3.06a2.21,2.21,0,0,1-2.76-1.44,2.14,2.14,0,0,1,.15-1.68A2.18,2.18,0,0,1,73,58.73a2.51,2.51,0,0,1,.66-.1,2.2,2.2,0,0,1,.66,4.31Z"/><path class="cls-3" d="M75.5,63.62a1.15,1.15,0,0,0,.66,2.08,1.1,1.1,0,0,0,.66-.21,1.14,1.14,0,0,0,.47-.74,1.18,1.18,0,0,0-.19-.86A1.19,1.19,0,0,0,75.5,63.62Z"/><rect class="cls-6" x="62.66" y="43.94" width="22.02" height="6.28"/><path class="cls-3" d="M84.68,43.44h-22a.51.51,0,0,0-.5.5v6.29a.51.51,0,0,0,.5.5h22a.51.51,0,0,0,.5-.5V43.94A.51.51,0,0,0,84.68,43.44Zm-.5,6.29h-21V44.44h21Z"/></g></g></svg>