<svg enable-background="new 0 0 496 496" viewBox="0 0 496 496" xmlns="http://www.w3.org/2000/svg"><path d="m448 40v176.936h16v-160.936h16v192h-16v-15.064h-16v15.064h-16v-152h-48v152h-16v-128h-48v128h-16v-104h-48v104h-16v16h256v-224zm-160 208h-16v-88h16zm64 0h-16v-112h16zm64 0h-16v-136h16z"/><path d="m336 0v16h24.672c-38.856 54.352-93.584 93.832-155.72 113.6-20.128-29.896-54.28-49.6-92.952-49.6-61.76 0-112 50.24-112 112 0 53.512 37.744 98.32 88 109.344v34.656h-16v120c0 22.056 17.944 40 40 40s40-17.944 40-40v-120h-16v-34.656c50.256-11.024 88-55.832 88-109.344 0-17.288-4.056-33.608-11.08-48.24 65.328-21.528 122.712-63.752 163.08-121.712v33.952h16v-56zm-200 456c0 13.232-10.768 24-24 24s-24-10.768-24-24v-104h48zm-32-120v-32.408c2.656.192 5.296.408 8 .408s5.344-.216 8-.408v32.408zm8-48c-52.936 0-96-43.064-96-96s43.064-96 96-96c31.256 0 58.992 15.08 76.528 38.28-5.776 1.488-11.6 2.784-17.48 3.936-14.64-16.056-35.656-26.216-59.048-26.216-44.112 0-80 35.888-80 80s35.888 80 80 80 80-35.888 80-80c0-14.44-3.904-27.968-10.624-39.672 5.392-1.184 10.736-2.488 16.04-3.944 6.72 13.104 10.584 27.904 10.584 43.616 0 52.936-43.064 96-96 96zm52.552-132.432c7.2 10.352 11.448 22.896 11.448 36.432 0 35.288-28.712 64-64 64s-64-28.712-64-64 28.712-64 64-64c14.744 0 28.304 5.064 39.136 13.472-12.88 1.656-25.944 2.528-39.136 2.528v16c17.792 0 35.328-1.592 52.552-4.432z"/><path d="m288 304h176v16h-176z"/><path d="m288 400h176v16h-176z"/><path d="m288 352h80v16h-80z"/><path d="m384 352h80v16h-80z"/><path d="m288 448h80v16h-80z"/><path d="m384 448h80v16h-80z"/><path d="m256 304h16v16h-16z"/><path d="m256 352h16v16h-16z"/><path d="m256 400h16v16h-16z"/><path d="m256 448h16v16h-16z"/></svg>