<svg enable-background="new 0 0 512 512" viewBox="0 0 512 512" xmlns="http://www.w3.org/2000/svg"><path d="m283.312 172.174c12.808 0 24.849-4.988 33.905-14.044 9.056-9.057 14.044-21.098 14.044-33.905s-4.988-24.848-14.044-33.905c-9.056-9.056-21.097-14.043-33.905-14.043-12.807 0-24.848 4.987-33.905 14.043-18.694 18.696-18.694 49.114 0 67.809v.001c9.057 9.056 21.097 14.044 33.905 14.044zm-23.35-71.298c6.237-6.238 14.53-9.672 23.35-9.672 8.821 0 17.113 3.434 23.35 9.672 6.237 6.237 9.672 14.529 9.672 23.35s-3.435 17.113-9.672 23.351c-6.237 6.237-14.529 9.672-23.35 9.672-8.82 0-17.113-3.435-23.35-9.673v.001c-12.875-12.877-12.875-33.827 0-46.701z"/><path d="m490.694 261.208 19.44-29.75c2.301-3.521 2.487-8.006.485-11.706s-5.858-5.998-10.065-5.998h-87.009c-40.159 0-77.915 15.639-106.313 44.036l-21.959 21.959c-17.377 17.377-44.133 20.522-65.065 7.647l-32.098-19.742 7.248-7.248h8.033c17.614 0 35.27 4.13 51.06 11.942 2.6 1.466 7.631.774 9.999-3.379 1.828-3.695.315-8.171-3.379-9.999-15.832-7.834-33.325-12.381-50.971-13.306l25.924-25.924c40.624 20.12 90.303 12.199 122.652-20.15 20.469-20.469 31.552-47.686 31.209-76.636-.343-28.941-12.083-55.896-33.058-75.9-42.306-40.347-109.742-38.878-150.325 3.279-2.858 2.969-2.769 7.694.201 10.552s7.694 2.769 10.553-.201c34.901-36.254 92.892-37.522 129.271-2.827 18.041 17.205 28.139 40.387 28.434 65.275.295 24.897-9.236 48.302-26.838 65.904-28.984 28.984-74.14 35.163-109.812 15.033-2.918-1.647-6.575-1.148-8.945 1.222l-54.325 54.325-33.583-20.655 60.788-60.788c2.369-2.37 2.869-6.028 1.222-8.946-14.525-25.737-15.716-57.092-3.186-83.875 1.747-3.734.136-8.175-3.597-9.922-3.734-1.749-8.176-.136-9.923 3.597-13.759 29.412-13.288 63.568 1.034 92.486l-181.975 181.974c-3.754 3.754-5.821 8.744-5.821 14.053s2.067 10.299 5.821 14.051l20.125 20.126c3.874 3.873 8.962 5.81 14.051 5.81 4.818 0 9.624-1.758 13.411-5.232l37.349 37.349c3.153 2.906 8.993 4.607 14.346-.001l16.69-16.69c2.871-3.021 4.619-9.127-.001-14.345l-10.131-10.132 2.92-2.92 10.134 10.134c3.955 3.951 10.389 3.951 14.345-.002l18.387-18.387c2.871-3.021 4.619-9.127-.001-14.345l-10.131-10.132 9.467-9.468c3.953-3.954 3.953-10.39-.001-14.346l-20.012-20.012 16.561-16.561 45.76 45.761c14.856 14.855 33.513 23.644 52.869 26.377.166.205.343.404.534.594l116.049 115.778c2.59 2.204 6.585 4.344 11.576 2.795 4.095-1.314 7.081-4.765 7.792-9.005l5.961-35.562 35.55-5.959c4.244-.711 7.696-3.7 9.008-7.797 1.312-4.099.237-8.537-2.807-11.582l-88.978-88.979c23.122-17.089 50.986-26.325 80.271-26.325h10.645c4.122 0 7.463-3.341 7.463-7.463s-3.341-7.463-7.463-7.463h-10.645c-40.159 0-77.915 15.639-106.312 44.036-30.591 30.59-80.366 30.59-110.958 0l-83.422-83.422 4.402-4.402 81.767 50.291c26.843 16.509 61.154 12.478 83.439-9.806l21.959-21.959c25.578-25.578 59.586-39.665 95.758-39.665h80.573l-16.098 24.635c-3.136 4.802-3.132 11.005.014 15.805l16.058 24.487h-23.789c-4.122 0-7.463 3.341-7.463 7.463s3.341 7.463 7.463 7.463h30.238c4.21 0 8.068-2.301 10.069-6.006 2-3.703 1.809-8.192-.499-11.713zm-159.539 86.991c1.29-1.291 2.608-2.544 3.941-3.776l85.189 85.19-29.234 4.901c-6.067 1.017-10.827 5.777-11.844 11.844l-4.904 29.255-100.733-100.497c21.024-1.893 41.526-10.858 57.585-26.917zm-197.777 21.799 10.131 10.132-11.624 11.623-10.13-10.13c-3.021-2.874-9.128-4.624-14.348-.002l-9.682 9.682c-3.956 3.956-3.956 10.392 0 14.347l10.131 10.132-9.927 9.927-40.972-40.971 62.219-62.219 23.666 23.666-9.466 9.465c-3.954 3.956-3.954 10.392.002 14.348zm9.395-78.115-16.568 16.568c-1.899-1.829-4.384-2.84-7.028-2.84-2.711 0-5.259 1.056-7.174 2.972l-68.982 68.982c-3.886 3.887-3.943 10.166-.188 14.137-1.929 1.355-4.612 1.182-6.334-.539l-20.125-20.126c-.934-.934-1.448-2.176-1.448-3.496 0-1.322.515-2.564 1.449-3.497l99.278-99.278z"/></svg>