<svg enable-background="new 0 0 512 512" viewBox="0 0 512 512" xmlns="http://www.w3.org/2000/svg"><path d="m437.019 90.897c-48.351-48.352-112.639-74.98-181.019-74.98s-132.668 26.628-181.019 74.98-74.981 112.639-74.981 181.02c0 73.315 31.526 143.239 86.495 191.842 3.145 2.782 7.951 2.486 10.733-.66s2.487-7.952-.66-10.733c-51.705-45.718-81.359-111.489-81.359-180.449 0-64.317 25.046-124.786 70.526-170.266s105.948-70.526 170.265-70.526 124.786 25.046 170.266 70.526 70.526 105.948 70.526 170.266c0 68.961-29.654 134.731-81.36 180.448-3.147 2.782-3.442 7.587-.66 10.733 1.503 1.7 3.597 2.567 5.7 2.567 1.79 0 3.587-.629 5.034-1.907 54.968-48.602 86.494-118.526 86.494-191.841 0-68.381-26.629-132.668-74.981-181.02z"/><path d="m357.664 426.923h-170.458c-4.199 0-7.604 3.405-7.604 7.604s3.405 7.604 7.604 7.604h170.457c5.993 0 10.869 4.876 10.869 10.869v17.009c0 5.993-4.876 10.868-10.869 10.868h-203.328c-5.993 0-10.868-4.876-10.868-10.868v-17.009c0-5.993 4.876-10.869 10.868-10.869h7.525c4.199 0 7.604-3.405 7.604-7.604s-3.405-7.604-7.604-7.604h-7.525c-14.379 0-26.076 11.698-26.076 26.077v17.009c0 14.379 11.698 26.075 26.076 26.075h203.329c14.379 0 26.077-11.698 26.077-26.075v-17.009c-.001-14.379-11.698-26.077-26.077-26.077z"/><path d="m385 99.503c-37.458-28.07-82.066-42.907-129.004-42.907-86.616 0-164.451 51.525-198.293 131.269-1.533 3.612-.066 7.798 3.387 9.662 1.145.618 2.384.913 3.607.913 2.467 0 4.873-1.201 6.33-3.382 32.83-49.163 87.668-78.514 146.692-78.514 42.979 0 84.375 15.643 116.562 44.047 3.149 2.778 7.957 2.479 10.733-.67 2.779-3.149 2.479-7.954-.669-10.733-34.968-30.858-79.939-47.852-126.625-47.852-38.538 0-75.436 11.521-106.484 32.306 37.06-38.818 88.95-61.837 144.762-61.837 43.622 0 85.078 13.786 119.883 39.869 3.361 2.518 8.126 1.835 10.646-1.525 2.516-3.361 1.834-8.128-1.527-10.646z"/><path d="m424.472 137.818c-2.618-3.284-7.4-3.825-10.686-1.208-3.284 2.618-3.823 7.401-1.206 10.686 26.896 33.748 41.817 74.063 43.392 117.017h-48.898c-3.202-21.491-9.993-42.09-20.227-61.323-1.972-3.707-6.575-5.115-10.285-3.141-3.708 1.973-5.114 6.577-3.142 10.285 10.398 19.542 16.933 40.617 19.426 62.638.435 3.845 3.687 6.749 7.555 6.749h63.311c4.201 0 7.605-3.405 7.605-7.604.001-49.274-16.199-95.645-46.845-134.099z"/><path d="m411.889 103.465c-3.293-2.163-7.692-1.454-10.137 1.635l-131.95 166.676c-2.607 3.293-2.051 8.074 1.242 10.682s8.075 2.05 10.682-1.242l78.719-99.435-88.971 165.696c-.673 1.103-1.826 2.898-2.388 3.603-2.782 3.496-6.759 5.698-11.199 6.202-4.439.507-8.809-.751-12.305-3.534s-5.698-6.76-6.202-11.2c-.504-4.439.751-8.809 3.548-12.321l23.782-30.041c2.606-3.293 2.05-8.076-1.243-10.683-3.292-2.606-8.075-2.05-10.682 1.242l-23.768 30.025c-5.314 6.673-7.709 15.016-6.748 23.492.962 8.476 5.167 16.07 11.841 21.382 5.709 4.545 12.639 6.956 19.829 6.956 1.215 0 2.438-.069 3.663-.208 8.476-.962 16.07-5.168 21.382-11.84 1.4-1.759 3.242-4.775 3.598-5.362.067-.112.133-.225.194-.34l129.637-241.433c1.863-3.471.768-7.79-2.524-9.952z"/><path d="m263.332 334.888c-3.724-5.667-12.867-3.622-13.839 3.099-.462 3.196 1.192 6.474 4.106 7.905 2.821 1.386 6.255.931 8.574-1.205 2.704-2.489 3.225-6.748 1.159-9.799z"/></svg>