<?xml version="1.0" encoding="utf-8"?>
<!-- Generator: Adobe Illustrator 16.0.0, SVG Export Plug-In . SVG Version: 6.00 Build 0)  -->
<!DOCTYPE svg PUBLIC "-//W3C//DTD SVG 1.1//EN" "http://www.w3.org/Graphics/SVG/1.1/DTD/svg11.dtd">
<svg version="1.1" id="Capa_1" xmlns="http://www.w3.org/2000/svg" xmlns:xlink="http://www.w3.org/1999/xlink" x="0px" y="0px"
	 width="160px" height="160px" viewBox="1195.59 176 160 160" enable-background="new 1195.59 176 160 160" xml:space="preserve">
<g>
	<g>
		<g>
			<path fill="#4A4A4A" d="M1278.91,274.122c-0.559-1.179-1.967-1.681-3.144-1.12c-1.917,0.909-3.925,1.66-5.971,2.232
				c-0.856,0.24-1.504,0.939-1.679,1.811l-2.497,12.484c-0.247,1.233-1.338,2.128-2.596,2.128h-6.812
				c-1.256,0-2.348-0.895-2.594-2.128l-2.498-12.484c-0.175-0.871-0.822-1.57-1.679-1.811c-2.89-0.808-5.679-1.964-8.29-3.435
				c-0.774-0.437-1.728-0.401-2.467,0.093l-10.595,7.063c-1.046,0.698-2.452,0.559-3.339-0.331l-4.818-4.816
				c-0.888-0.89-1.027-2.294-0.33-3.34l7.063-10.596c0.494-0.738,0.529-1.692,0.093-2.468c-1.471-2.61-2.626-5.4-3.436-8.29
				c-0.239-0.854-0.938-1.504-1.81-1.677l-12.484-2.497c-1.233-0.247-2.127-1.338-2.127-2.596v-6.812
				c0-1.258,0.894-2.348,2.127-2.595l12.484-2.497c0.871-0.175,1.571-0.824,1.81-1.679c0.809-2.89,1.965-5.679,3.436-8.29
				c0.437-0.774,0.4-1.728-0.093-2.468l-7.063-10.594c-0.697-1.046-0.558-2.45,0.332-3.339l4.816-4.816
				c0.89-0.89,2.293-1.028,3.339-0.332l10.595,7.064c0.739,0.493,1.694,0.529,2.469,0.093c2.609-1.471,5.398-2.626,8.29-3.436
				c0.855-0.239,1.504-0.938,1.677-1.81l2.498-12.486c0.246-1.232,1.338-2.127,2.596-2.127h6.812c1.257,0,2.348,0.894,2.596,2.127
				l2.497,12.486c0.173,0.871,0.823,1.571,1.678,1.81c2.889,0.809,5.68,1.965,8.29,3.436c0.775,0.437,1.729,0.4,2.468-0.093
				l10.596-7.064c1.046-0.697,2.45-0.558,3.339,0.332l4.816,4.816c0.891,0.89,1.028,2.293,0.332,3.339l-7.064,10.595
				c-0.492,0.739-0.529,1.693-0.093,2.468c1.471,2.611,2.627,5.399,3.436,8.29c0.239,0.856,0.938,1.504,1.81,1.677l12.486,2.497
				c1.231,0.247,2.127,1.338,2.127,2.596v6.812c0,1.258-0.896,2.348-2.127,2.595l-12.486,2.499c-0.871,0.173-1.57,0.823-1.81,1.679
				c-0.587,2.095-1.36,4.151-2.301,6.112c-0.564,1.176-0.068,2.585,1.107,3.148c1.176,0.565,2.585,0.068,3.147-1.106
				c0.849-1.768,1.577-3.607,2.174-5.483l11.093-2.217c3.431-0.688,5.922-3.726,5.922-7.226v-6.812c0-3.501-2.491-6.538-5.922-7.225
				l-11.093-2.219c-0.729-2.291-1.65-4.517-2.756-6.647l6.276-9.414c1.94-2.912,1.554-6.822-0.922-9.296l-4.816-4.816
				c-2.476-2.476-6.384-2.862-9.296-0.921l-9.414,6.276c-2.131-1.106-4.357-2.027-6.647-2.756l-2.219-11.093
				c-0.686-3.431-3.725-5.922-7.226-5.922h-6.812c-3.499,0-6.538,2.491-7.224,5.923l-2.219,11.093
				c-2.291,0.727-4.517,1.65-6.649,2.754l-9.413-6.275c-2.912-1.942-6.822-1.554-9.296,0.92l-4.816,4.816
				c-2.476,2.476-2.862,6.384-0.921,9.296l6.276,9.414c-1.105,2.132-2.027,4.358-2.756,6.649l-11.093,2.219
				c-3.431,0.686-5.922,3.724-5.922,7.224v6.812c0,3.501,2.491,6.538,5.922,7.226l11.093,2.219c0.729,2.289,1.65,4.517,2.756,6.647
				l-6.276,9.414c-1.94,2.912-1.554,6.822,0.921,9.297l4.816,4.816c2.474,2.476,6.384,2.861,9.296,0.921l9.414-6.276
				c2.131,1.106,4.357,2.027,6.647,2.756l2.219,11.093c0.686,3.431,3.725,5.922,7.225,5.922h6.812c3.499,0,6.538-2.491,7.224-5.923
				l2.219-11.093c1.819-0.578,3.604-1.281,5.323-2.096C1278.968,276.708,1279.47,275.3,1278.91,274.122z"/>
			<path fill="#4A4A4A" d="M1280.065,252.056c0.344,0.178,0.712,0.262,1.074,0.262c0.857,0,1.685-0.47,2.103-1.285
				c1.904-3.712,2.91-7.895,2.91-12.092c0-14.632-11.902-26.535-26.534-26.535c-6.961,0-13.538,2.675-18.522,7.534
				c-0.932,0.91-0.952,2.404-0.042,3.338c0.911,0.932,2.404,0.952,3.338,0.042c4.097-3.994,9.503-6.193,15.225-6.193
				c12.028,0,21.814,9.785,21.814,21.813c0,3.502-0.805,6.847-2.391,9.938C1278.446,250.039,1278.905,251.461,1280.065,252.056z"/>
			<path fill="#4A4A4A" d="M1237.523,228.839c-1.233-0.424-2.576,0.231-3,1.464c-0.954,2.772-1.437,5.679-1.437,8.637
				c0,14.63,11.903,26.533,26.535,26.533c5.627,0,11.003-1.74,15.547-5.031c1.056-0.763,1.291-2.239,0.528-3.295
				c-0.765-1.056-2.242-1.293-3.297-0.528c-3.734,2.703-8.153,4.133-12.779,4.133c-12.028,0-21.813-9.785-21.813-21.813
				c0-2.434,0.397-4.823,1.18-7.101C1239.41,230.606,1238.755,229.264,1237.523,228.839z"/>
			<path fill="#4A4A4A" d="M1347.136,284.666l-6.825-1.365c-0.417-1.238-0.917-2.446-1.498-3.614l3.862-5.792
				c1.489-2.232,1.192-5.231-0.707-7.13l-3.165-3.165c-1.897-1.897-4.896-2.195-7.131-0.707l-5.791,3.863
				c-1.168-0.581-2.375-1.082-3.613-1.498l-1.364-6.825c-0.527-2.633-2.857-4.543-5.542-4.543h-4.477
				c-2.683,0-5.015,1.91-5.541,4.543l-1.365,6.825c-1.236,0.416-2.445,0.917-3.611,1.498l-5.793-3.863
				c-2.234-1.487-5.233-1.192-7.131,0.707l-3.165,3.165c-1.898,1.898-2.194,4.897-0.706,7.13l3.861,5.792
				c-0.798,1.606-1.444,3.288-1.928,5.016c-0.352,1.257,0.381,2.559,1.638,2.909c1.255,0.352,2.557-0.381,2.907-1.636
				c0.515-1.837,1.25-3.61,2.185-5.269c0.437-0.775,0.399-1.729-0.093-2.468l-4.642-6.962c-0.245-0.368-0.196-0.862,0.115-1.175
				l3.165-3.164c0.313-0.313,0.806-0.36,1.174-0.117l6.962,4.642c0.739,0.494,1.694,0.529,2.469,0.093
				c1.659-0.935,3.431-1.669,5.268-2.183c0.856-0.239,1.505-0.938,1.68-1.81l1.641-8.205c0.087-0.434,0.47-0.748,0.911-0.748h4.477
				c0.441,0,0.826,0.314,0.911,0.748l1.643,8.205c0.174,0.871,0.823,1.57,1.678,1.81c1.837,0.514,3.608,1.248,5.268,2.184
				c0.774,0.437,1.729,0.4,2.469-0.093l6.962-4.642c0.368-0.244,0.86-0.197,1.174,0.116l3.165,3.164
				c0.312,0.313,0.36,0.807,0.117,1.175l-4.644,6.962c-0.492,0.74-0.529,1.694-0.093,2.468c0.936,1.659,1.67,3.432,2.185,5.269
				c0.238,0.856,0.938,1.504,1.81,1.679l8.204,1.641c0.434,0.086,0.747,0.471,0.747,0.911v4.478c0,0.44-0.313,0.824-0.747,0.911
				l-8.204,1.641c-0.872,0.175-1.571,0.822-1.812,1.679c-0.513,1.837-1.248,3.609-2.183,5.269c-0.437,0.773-0.399,1.729,0.093,2.468
				l4.642,6.962c0.245,0.368,0.196,0.861-0.115,1.175l-3.166,3.164c-0.313,0.313-0.805,0.36-1.173,0.116l-6.962-4.642
				c-0.739-0.493-1.694-0.529-2.469-0.093c-1.659,0.936-3.431,1.67-5.27,2.184c-0.854,0.239-1.502,0.938-1.677,1.81l-1.642,8.205
				c-0.087,0.432-0.47,0.747-0.912,0.747h-4.476c-0.441,0-0.826-0.315-0.913-0.747l-1.641-8.205
				c-0.173-0.871-0.823-1.57-1.678-1.811c-1.837-0.515-3.608-1.249-5.268-2.183c-0.774-0.437-1.729-0.4-2.469,0.093l-6.962,4.642
				c-0.368,0.244-0.86,0.196-1.174-0.117l-3.165-3.165c-0.312-0.312-0.36-0.806-0.117-1.173l4.644-6.962
				c0.492-0.74,0.527-1.694,0.093-2.468c-0.936-1.659-1.67-3.432-2.185-5.269c-0.238-0.856-0.938-1.506-1.81-1.679l-8.204-1.641
				c-0.434-0.087-0.747-0.471-0.747-0.913v-4.476c0-0.44,0.313-0.825,0.747-0.912l0.503-0.101c1.277-0.256,2.106-1.499,1.851-2.777
				c-0.255-1.278-1.498-2.105-2.778-1.852l-0.502,0.1c-2.631,0.528-4.542,2.858-4.542,5.542v4.478c0,2.684,1.912,5.014,4.542,5.54
				l6.827,1.366c0.415,1.236,0.915,2.445,1.496,3.611l-3.861,5.793c-1.49,2.233-1.192,5.232,0.706,7.131l3.165,3.165
				c1.897,1.897,4.896,2.194,7.131,0.705l5.793-3.861c1.166,0.581,2.375,1.081,3.611,1.497l1.365,6.826
				c0.526,2.631,2.858,4.543,5.542,4.543h4.476c2.685,0,5.015-1.912,5.542-4.543l1.364-6.826c1.238-0.416,2.445-0.917,3.613-1.497
				l5.793,3.861c2.234,1.489,5.231,1.192,7.129-0.705l3.167-3.165c1.897-1.899,2.194-4.897,0.705-7.131l-3.862-5.793
				c0.581-1.168,1.081-2.375,1.498-3.611l6.825-1.366c2.632-0.526,4.542-2.856,4.542-5.542v-4.476
				C1351.678,287.522,1349.768,285.192,1347.136,284.666z"/>
			<path fill="#4A4A4A" d="M1313.123,283.946c4.686,0,8.498,3.813,8.498,8.499c0,1.303,1.057,2.359,2.36,2.359
				s2.36-1.057,2.36-2.359c0-7.29-5.93-13.219-13.219-13.219s-13.219,5.929-13.219,13.219c0,7.289,5.93,13.219,13.219,13.219
				c2.952,0,5.746-0.952,8.077-2.753c1.031-0.799,1.221-2.28,0.424-3.313c-0.797-1.031-2.279-1.222-3.312-0.424
				c-1.497,1.155-3.291,1.767-5.189,1.767c-4.686,0-8.496-3.811-8.496-8.496C1304.627,287.758,1308.438,283.946,1313.123,283.946z"
				/>
			<path fill="#4A4A4A" d="M1274.001,238.94c0-7.931-6.453-14.382-14.382-14.382c-7.93,0-14.381,6.451-14.381,14.382
				c0,7.929,6.451,14.38,14.381,14.38C1267.548,253.321,1274.001,246.87,1274.001,238.94z M1249.958,238.94
				c0-5.328,4.334-9.662,9.66-9.662c5.327,0,9.66,4.334,9.66,9.662c0,5.326-4.333,9.66-9.66,9.66
				C1254.291,248.601,1249.958,244.266,1249.958,238.94z"/>
		</g>
	</g>
</g>
</svg>
