<svg xmlns="http://www.w3.org/2000/svg" viewBox="0 0 104.09 92"><defs><style>.cls-1{opacity:0.4;}.cls-2{fill:#fff;}.cls-3{fill:#d5d5d4;}.cls-4{fill:#1d1d1b;}.cls-5{fill:#454544;}.cls-6{fill:#f3f0f1;}.cls-7{fill:#85c5ca;}.cls-8{fill:#f07e2d;}.cls-9{fill:#f2e375;}.cls-10{fill:#f0eced;}.cls-11{fill:#2b251c;}</style></defs><title>Asset 1_web-development</title><g id="Layer_2" data-name="Layer 2"><g id="Livello_2" data-name="Livello 2"><g class="cls-1"><circle class="cls-2" cx="46.66" cy="46" r="46"/></g><polygon class="cls-3" points="39.54 63.17 37.8 52.93 33.38 52.93 31.64 52.93 27.23 52.93 25.49 63.17 18.16 63.17 15.55 65.84 31.64 65.84 33.38 65.84 49.48 65.84 46.87 63.17 39.54 63.17"/><path class="cls-4" d="M47.23,62.83a.49.49,0,0,0-.36-.15H40l-1.67-9.84a.49.49,0,0,0-.49-.41H27.23a.5.5,0,0,0-.5.41l-1.67,9.84h-6.9a.48.48,0,0,0-.36.15l-2.61,2.66a.51.51,0,0,0-.1.55.49.49,0,0,0,.46.3H49.48a.5.5,0,0,0,.36-.85ZM16.74,65.34l1.63-1.66h7.12a.5.5,0,0,0,.49-.42l1.67-9.83h9.73l1.67,9.83a.5.5,0,0,0,.49.42h7.12l1.63,1.66Z"/><rect class="cls-5" x="0.5" y="8.87" width="64.03" height="47.22" rx="1.64" ry="1.64"/><path class="cls-4" d="M62.88,8.37H2.14A2.14,2.14,0,0,0,0,10.52V54.45a2.14,2.14,0,0,0,2.14,2.14H62.88A2.14,2.14,0,0,0,65,54.45V10.52A2.15,2.15,0,0,0,62.88,8.37ZM64,54.45a1.14,1.14,0,0,1-1.15,1.14H2.14A1.14,1.14,0,0,1,1,54.45V10.52A1.15,1.15,0,0,1,2.14,9.37H62.88A1.15,1.15,0,0,1,64,10.52Z"/><path class="cls-3" d="M.5,53.83a2.27,2.27,0,0,0,2.26,2.26H62.27a2.27,2.27,0,0,0,2.26-2.26V48.08H.5Z"/><path class="cls-4" d="M64.53,47.58H.5a.5.5,0,0,0-.5.5v5.75a2.77,2.77,0,0,0,2.76,2.76H62.27A2.77,2.77,0,0,0,65,53.83V48.08A.5.5,0,0,0,64.53,47.58ZM64,53.83a1.76,1.76,0,0,1-1.76,1.76H2.76A1.76,1.76,0,0,1,1,53.83V48.58H64Z"/><rect class="cls-6" x="2.33" y="10.7" width="60.38" height="37.38"/><path class="cls-4" d="M62.7,10.2H2.33a.5.5,0,0,0-.5.5V48.08a.5.5,0,0,0,.5.5H62.7a.5.5,0,0,0,.5-.5V10.7A.5.5,0,0,0,62.7,10.2Zm-.5,37.38H2.83V11.2H62.2Z"/><rect class="cls-7" x="5.68" y="20.99" width="53.66" height="11"/><path class="cls-4" d="M59.34,20.49H5.68a.5.5,0,0,0-.5.5V32a.51.51,0,0,0,.5.5H59.34a.5.5,0,0,0,.5-.5V21A.5.5,0,0,0,59.34,20.49Zm-.5,11H6.18v-10H58.84Z"/><rect class="cls-7" x="5.51" y="34.65" width="16.32" height="11"/><path class="cls-4" d="M21.83,34.15H5.51a.51.51,0,0,0-.5.5v11a.5.5,0,0,0,.5.5H21.83a.5.5,0,0,0,.5-.5v-11A.5.5,0,0,0,21.83,34.15Zm-.5,11H6v-10H21.33Z"/><rect class="cls-7" x="43.2" y="34.65" width="16.32" height="11"/><path class="cls-4" d="M59.51,34.15H43.2a.5.5,0,0,0-.5.5v11a.5.5,0,0,0,.5.5H59.51a.5.5,0,0,0,.5-.5v-11A.5.5,0,0,0,59.51,34.15Zm-.5,11H43.7v-10H59Z"/><rect class="cls-7" x="24.35" y="34.65" width="16.32" height="11"/><path class="cls-4" d="M40.67,34.15H24.35a.51.51,0,0,0-.5.5v11a.5.5,0,0,0,.5.5H40.67a.5.5,0,0,0,.5-.5v-11A.5.5,0,0,0,40.67,34.15Zm-.5,11H24.85v-10H40.17Z"/><rect class="cls-8" x="5.68" y="13.3" width="16.32" height="5"/><path class="cls-4" d="M22,12.8H5.68a.5.5,0,0,0-.5.5v5a.5.5,0,0,0,.5.5H22a.5.5,0,0,0,.5-.5v-5A.5.5,0,0,0,22,12.8Zm-.5,5H6.18v-4H21.5Z"/><rect class="cls-9" x="24.53" y="13.3" width="34.82" height="5"/><path class="cls-4" d="M59.34,12.8H24.53a.5.5,0,0,0-.5.5v5a.5.5,0,0,0,.5.5H59.34a.5.5,0,0,0,.5-.5v-5A.5.5,0,0,0,59.34,12.8Zm-.5,5H25v-4H58.84Z"/><rect class="cls-2" x="39.63" y="26.71" width="54.63" height="39.95" rx="1.19" ry="1.19"/><path class="cls-4" d="M93.07,26.21H40.83a1.7,1.7,0,0,0-1.7,1.69V65.47a1.7,1.7,0,0,0,1.7,1.69H93.07a1.69,1.69,0,0,0,1.69-1.69V27.9A1.69,1.69,0,0,0,93.07,26.21Zm.69,39.26a.69.69,0,0,1-.69.69H40.83a.69.69,0,0,1-.7-.69V27.9a.69.69,0,0,1,.7-.69H93.07a.69.69,0,0,1,.69.69Z"/><path class="cls-2" d="M30.3,66.18A2.68,2.68,0,0,0,33,68.86h67.94a2.68,2.68,0,0,0,2.67-2.68V64.36H30.3Z"/><path class="cls-4" d="M29.8,66.18A3.18,3.18,0,0,0,33,69.35h67.94a3.17,3.17,0,0,0,3.17-3.17V63.86H29.8Zm1-1.32h72.29v1.32a2.17,2.17,0,0,1-2.17,2.17H33a2.18,2.18,0,0,1-2.18-2.17Z"/><rect class="cls-10" x="42.76" y="30.56" width="48.37" height="31.22"/><path class="cls-11" d="M91.12,30l-48.37,0a.52.52,0,0,0-.36.14.54.54,0,0,0-.14.36l0,31.22a.51.51,0,0,0,.5.5l48.38,0a.5.5,0,0,0,.35-.14.55.55,0,0,0,.15-.36l0-31.22A.5.5,0,0,0,91.12,30ZM43.27,61.3l0-30.22,47.37,0,0,30.22Z"/><rect class="cls-7" x="44.98" y="39.65" width="43.81" height="9"/><path class="cls-4" d="M88.79,39.15H45a.5.5,0,0,0-.5.5v9a.51.51,0,0,0,.5.5H88.79a.5.5,0,0,0,.5-.5v-9A.5.5,0,0,0,88.79,39.15Zm-.5,9H45.48v-8H88.29Z"/><rect class="cls-7" x="44.98" y="51.07" width="13.32" height="8.21"/><path class="cls-4" d="M58.31,50.57H45a.51.51,0,0,0-.5.5v8.21a.5.5,0,0,0,.5.5H58.31a.5.5,0,0,0,.5-.5V51.07A.51.51,0,0,0,58.31,50.57Zm-.5,8.21H45.48V51.57H57.81Z"/><rect class="cls-7" x="75.91" y="51.17" width="13" height="8.01"/><path class="cls-4" d="M88.91,50.67h-13a.5.5,0,0,0-.5.5v8a.5.5,0,0,0,.5.5h13a.5.5,0,0,0,.5-.5v-8A.5.5,0,0,0,88.91,50.67Zm-.5,8h-12v-7h12Z"/><rect class="cls-7" x="60.53" y="51.17" width="13" height="8.01"/><path class="cls-4" d="M73.53,50.67h-13a.5.5,0,0,0-.5.5v8a.5.5,0,0,0,.5.5h13a.5.5,0,0,0,.5-.5v-8A.51.51,0,0,0,73.53,50.67Zm-.5,8H61v-7H73Z"/><rect class="cls-8" x="44.98" y="33.06" width="13.32" height="4.16"/><path class="cls-4" d="M58.31,32.56H45a.5.5,0,0,0-.5.5v4.16a.51.51,0,0,0,.5.5H58.31a.51.51,0,0,0,.5-.5V33.06A.5.5,0,0,0,58.31,32.56Zm-.5,4.16H45.48V33.56H57.81Z"/><rect class="cls-9" x="60.37" y="33.06" width="28.43" height="4.16"/><path class="cls-4" d="M88.79,32.56H60.37a.5.5,0,0,0-.5.5v4.16a.5.5,0,0,0,.5.5H88.79a.5.5,0,0,0,.5-.5V33.06A.5.5,0,0,0,88.79,32.56Zm-.5,4.16H60.87V33.56H88.29Z"/><rect class="cls-5" x="29.13" y="44.46" width="19.14" height="31.04" rx="1.19" ry="1.19"/><path class="cls-4" d="M47.07,44H30.32a1.7,1.7,0,0,0-1.7,1.69V74.3a1.7,1.7,0,0,0,1.7,1.7H47.07a1.7,1.7,0,0,0,1.69-1.7V45.65A1.69,1.69,0,0,0,47.07,44Zm.69,30.34a.7.7,0,0,1-.69.7H30.32a.71.71,0,0,1-.7-.7V45.65a.7.7,0,0,1,.7-.69H47.07a.69.69,0,0,1,.69.69Z"/><rect class="cls-10" x="30.69" y="48.28" width="16" height="23.64"/><path class="cls-11" d="M46.69,47.78h-16a.5.5,0,0,0-.5.5V71.91a.5.5,0,0,0,.5.5h16a.5.5,0,0,0,.5-.5V48.28A.5.5,0,0,0,46.69,47.78Zm-.5,23.63h-15V48.78h15Z"/><rect class="cls-8" x="32.69" y="50.91" width="3.9" height="2.5"/><path class="cls-4" d="M36.59,50.41h-3.9a.5.5,0,0,0-.5.5v2.5a.51.51,0,0,0,.5.5h3.9a.5.5,0,0,0,.5-.5v-2.5A.5.5,0,0,0,36.59,50.41Zm-.5,2.5h-2.9v-1.5h2.9Z"/><rect class="cls-9" x="38.25" y="50.91" width="6.45" height="2.5"/><path class="cls-4" d="M44.69,50.41H38.25a.5.5,0,0,0-.5.5v2.5a.5.5,0,0,0,.5.5h6.44a.5.5,0,0,0,.5-.5v-2.5A.5.5,0,0,0,44.69,50.41Zm-.5,2.5H38.75v-1.5h5.44Z"/><rect class="cls-7" x="32.69" y="55.36" width="12" height="6"/><path class="cls-4" d="M44.69,54.86h-12a.51.51,0,0,0-.5.5v6a.5.5,0,0,0,.5.5h12a.5.5,0,0,0,.5-.5v-6A.5.5,0,0,0,44.69,54.86Zm-.5,6h-11v-5h11Z"/><rect class="cls-7" x="32.69" y="63.18" width="12" height="6"/><path class="cls-4" d="M44.69,62.68h-12a.51.51,0,0,0-.5.5v6a.5.5,0,0,0,.5.5h12a.5.5,0,0,0,.5-.5v-6A.5.5,0,0,0,44.69,62.68Zm-.5,6h-11v-5h11Z"/></g></g></svg>