<svg xmlns="http://www.w3.org/2000/svg" viewBox="0 0 149.56 149.56"><defs><style>.cls-1{fill:#3e404f;}.cls-2{fill:#002e5f;}.cls-3{fill:#fff;}</style></defs><g id="Layer_2" data-name="Layer 2"><g id="Layer_1-2" data-name="Layer 1"><g id="Normal"><g id="Vert"><path id="icon-bg" class="cls-1" d="M149.36,33.05V.34S95.58-.42,69.82.34C32.48,1.44.86,34.64,0,72.27c-1,46.16,37,81.33,83.09,76.92,33.49-3.2,62.6-32.35,65.54-65.54C150.14,66.79,149.36,33.05,149.36,33.05Z"/><g id="f"><polygon id="f-bottom" class="cls-1" points="121.19 77.29 96.89 77.29 96.89 98.81 83.22 98.81 83.22 66.33 107.19 66.33 107.19 66.32 121.19 66.32 121.19 77.29"/><path id="f-top" class="cls-1" d="M123.39,53.66a22.29,22.29,0,0,0-12.15-3.29c-9.46,0-14.35,4.13-14.35,12.32v.72H83.21v-.64c0-15.19,10.05-24.05,27.09-24.05,6.76,0,12.92,1.44,17.31,4.14Z"/></g><path id="n" class="cls-1" d="M75.79,98.81H62.62v-24c0-7.34-3.37-10.72-9.2-10.72-6.32,0-10.88,3.89-10.88,12.24V98.81H29.37V53.4H42v5.32c3.54-3.88,8.86-6,15-6,10.72,0,18.82,6.24,18.82,20.09Z"/><path id="icon-bg-2" data-name="icon-bg" class="cls-2" d="M149.36,33.05V.34S95.58-.42,69.82.34C32.48,1.44.86,34.64,0,72.27c-1,46.16,37,81.33,83.09,76.92,33.49-3.2,62.6-32.35,65.54-65.54C150.14,66.79,149.36,33.05,149.36,33.05Z"/><g id="f-2" data-name="f"><polygon id="f-bottom-2" data-name="f-bottom" class="cls-3" points="121.19 77.29 96.89 77.29 96.89 98.81 83.22 98.81 83.22 66.33 107.19 66.33 107.19 66.32 121.19 66.32 121.19 77.29"/><path id="f-top-2" data-name="f-top" class="cls-3" d="M123.39,53.66a22.29,22.29,0,0,0-12.15-3.29c-9.46,0-14.35,4.13-14.35,12.32v.72H83.21v-.64c0-15.19,10.05-24.05,27.09-24.05,6.76,0,12.92,1.44,17.31,4.14Z"/></g><path id="n-2" data-name="n" class="cls-3" d="M75.79,98.81H62.62v-24c0-7.34-3.37-10.72-9.2-10.72-6.32,0-10.88,3.89-10.88,12.24V98.81H29.37V53.4H42v5.32c3.54-3.88,8.86-6,15-6,10.72,0,18.82,6.24,18.82,20.09Z"/></g></g></g></g></svg>