
<svg viewBox="0 0 293.46 54.22" xmlns="http://www.w3.org/2000/svg">
   <path d="m282.71 54.22c.74 0 7.94-.06 10.75-.17v-8h-8.6c-3.16 0-4.63-1.77-4.63-5.55v-17.5h13.23v-7.9h-13.23v-14.76h-9.23v14.8 7.86l.06.34v18.96c-.06 7.46 4.33 11.92 11.65 11.92z"/>
   <path d="m73.59 12.81h8.77v7.78c2.9-5.64 8.09-8.08 15-8.08 9.46 0 15.1 6 15.1 15.63v25.24h-8.77v-22.8c0-6.1-3.66-9.84-9.76-9.84-6.76.08-10.93 4.73-11.57 11.06v21.58h-8.77"/>
   <g>
      <path d="m150.55 31.31v-7.82h-22.86v-15.41h22.86v-8.08h-31.86v53.38h9v-21.88h22.87c0-.07-.01-.13-.01-.19z"/>
      <path d="m178.13 12.51v8.39c-8.16-.46-13.35 4.34-14 11.28v21.2h-8.77v-40.57h8.77v8.09c2.71-5.5 7.59-8.39 14-8.39z"/>
      <path d="m222 33c0 12.28-8.62 20.67-21.12 20.67s-21.23-8.37-21.23-20.67 8.62-20.51 21.21-20.51 21.14 8.33 21.14 20.51zm-33.56.15c0 7.86 5.11 13.2 12.44 13.2s12.35-5.34 12.35-13.2-5.13-13.15-12.37-13.15-12.44 5.4-12.44 13.17z"/>
      <path d="m265.76 28.14v25.24h-8.76v-22.8c0-6.1-3.66-9.84-9.77-9.84-6.71.08-10.9 4.73-11.51 11.06v21.58h-8.77v-40.57h8.77v7.78c2.9-5.64 8.08-8.08 14.95-8.08 9.44 0 15.09 5.95 15.09 15.63z"/>
   </g>
   <path d="m27.11 0a27.11 27.11 0 0 0 -27.11 27.11 27.11 27.11 0 0 0 27.11 27.11 27.11 27.11 0 0 0 27.11-27.11v-27.11z"/>
   <path d="m34.79 40.9v-3.9a1.5 1.5 0 0 0 -1.5-1.5h-13.07a1.5 1.5 0 0 1 -1.5-1.5v-13.08a1.5 1.5 0 0 0 -1.5-1.5h-3.9a1.5 1.5 0 0 0 -1.5 1.5v20a1.5 1.5 0 0 0 1.5 1.5h20a1.5 1.5 0 0 0 1.47-1.52z" class="inner" />
   <path d="m42.55 32.65h-2.91a2 2 0 0 1 -2-2v-12.08a2 2 0 0 0 -2-2h-12.07a2 2 0 0 1 -2-2v-2.9a2 2 0 0 1 2-2h19a2 2 0 0 1 2 2v19a2 2 0 0 1 -2.02 1.98z" class="inner" />
</svg>
