<svg viewBox="0 0 490.16 175.85" xmlns="http://www.w3.org/2000/svg"><g><path d="m88.09 64v48.79h-24.71v-45c0-13.79-6.38-20.11-17.27-20.11-11.88 0-20.43 7.29-20.43 23v42.14h-24.68v-85.26h23.57v10c6.65-7.3 16.63-11.26 28.2-11.26 20.12 0 35.32 11.7 35.32 37.7z"/><path d="m239.23 26.3v22.81c-2.06-.16-3.65-.32-5.55-.32-13.62 0-22.65 7.44-22.65 23.76v40.24h-24.72v-85.23h23.61v11.25c6.02-8.24 16.16-12.51 29.31-12.51z"/><path d="m237.64 70.18c0-25.66 19.8-43.88 46.89-43.88s46.74 18.22 46.74 43.88-19.65 43.88-46.74 43.88-46.89-18.21-46.89-43.88zm68.6 0c0-14.73-9.35-23.6-21.71-23.6s-21.86 8.87-21.86 23.6 9.5 23.6 21.86 23.6 21.71-8.87 21.71-23.6z"/><path d="m425.68 64v48.79h-24.68v-45c0-13.78-6.34-20.12-17.27-20.12-11.88 0-20.43 7.29-20.43 23v42.14h-24.75v-85.25h23.61v10c6.65-7.28 16.63-11.24 28.2-11.24 20.11-.02 35.32 11.68 35.32 37.68z"/><path d="m484.14 47.52v-18.06h-21.07v-20.75h-24.71v38.81z"/><path d="m483.66 91.25a17.48 17.48 0 0 1 -10.14 3.17c-6.65 0-10.45-4-10.45-11.25v-30.17h-24.71v30.49c0 20.28 11.56 30.57 31.84 30.57 7.44 0 14.89-1.74 20-5.38z"/><path d="m152.89 0c-32 0-50.89 16.63-50.89 45.15v1.2h25.7v-1.35c0-15.36 9.19-23.13 26.93-23.13 7.76 0 16 1.74 22.81 6.18l7.92-20.28c-8.24-5.08-19.8-7.77-32.47-7.77z"/><path d="m147.04 51.83h-45.01v60.96h25.67v-40.39h45.62v-20.6h-26.28z"/></g><path d="m20.64 169.64-15.38-34.52-.13-.3h-5.13l18.33 40.73h4.53l18.41-40.73h-4.97z" /><path d="m104.62 153.48c-.55-11-8.6-19-19.14-19-11.49 0-19.83 8.69-19.83 20.66 0 12.17 8.65 20.67 21 20.67 6.4 0 11.86-2.36 15.38-6.65l.27-.33-2.87-3.27-.38.45c-2.83 3.47-7.2 5.38-12.32 5.38-7.66 0-13.58-4.2-15.58-11l33.45-6.52zm-19.14-14.61a14.31 14.31 0 0 1 14.27 12l-29.28 5.73c0-.6-.09-1.21-.09-1.76 0-9.39 6.21-15.97 15.1-15.97z" /><path d="m158.15 134.52c-6.73 0-12.18 2.7-15.25 7.48v-7.18h-4.65v40.73h4.8v-21.66c0-9.22 5.59-14.95 14.57-14.95 8 0 12.36 4.69 12.36 13.2v23.41h4.81v-23.71c0-10.84-6.22-17.32-16.64-17.32z" /><path d="m229.36 169.5a8.66 8.66 0 0 1 -5.83 2.08c-4.57 0-6.89-2.5-6.89-7.42v-25.07h12.64v-4.27h-12.64v-8.67h-4.8v38.39c0 7.09 4.23 11.31 11.31 11.31a12.46 12.46 0 0 0 8.49-2.95l.28-.28-2.11-3.53z" /><path d="m295.17 156.48c0 9.22-5.38 15-14 15-8.11 0-12.58-4.69-12.58-13.2v-23.46h-4.81v23.71c0 11 6.23 17.32 17.09 17.32 6.37 0 11.54-2.65 14.49-7.36v7.06h4.64v-40.73h-4.81z" /><path d="m342.59 141.89v-7.07h-4.65v40.73h4.81v-21.2c0-9.51 5.07-15.18 13.58-15.18a2.58 2.58 0 0 1 .39 0 4.55 4.55 0 0 0 .52 0h.5v-4.73h-.5c-6.7.08-11.82 2.68-14.65 7.45z" /><path d="m424.33 153.48c-.55-11-8.61-19-19.15-19-11.49 0-19.82 8.69-19.82 20.66 0 12.17 8.65 20.67 21 20.67 6.39 0 11.86-2.36 15.38-6.65l.27-.33-2.88-3.27-.37.45c-2.83 3.47-7.2 5.38-12.32 5.38-7.66 0-13.59-4.2-15.59-11l33.46-6.52zm-19.15-14.61a14.3 14.3 0 0 1 14.27 12l-29.27 5.73c-.05-.6-.1-1.2-.1-1.76 0-9.39 6.21-15.97 15.1-15.97z" /><path d="m469.94 153.23c-6.22-1.18-11.59-2.2-11.59-7.41 0-4.42 3.89-6.95 10.69-6.95a19.87 19.87 0 0 1 11.65 3.48l.45.32 2.25-3.9-.35-.27c-3.16-2.38-8.75-4-13.93-4-9.46 0-15.57 4.47-15.57 11.38 0 8.8 8 10.29 15 11.6 6.05 1.13 11.28 2.11 11.28 7 0 4.62-3.77 7-11.22 7a22.66 22.66 0 0 1 -14-4.67l-.46-.39-2.14 3.93.3.27c3.37 3.13 9.9 5.23 16.24 5.23 10 0 16.18-4.36 16.18-11.38-.04-8.47-7.87-9.92-14.78-11.24z" /></svg>